<svg width="121" height="200" viewBox="0 0 121 200" fill="none" xmlns="http://www.w3.org/2000/svg">
<rect width="121" height="193" rx="5" fill="#2E2F36"/>
<circle cx="116" cy="7" r="3" fill="#C4C4C4"/>
<circle cx="116" cy="27" r="3" fill="#C4C4C4"/>
<circle cx="116" cy="37" r="3" fill="#C4C4C4"/>
<circle cx="116" cy="17" r="3" fill="#C4C4C4"/>
<circle cx="116" cy="167" r="3" fill="#C4C4C4"/>
<circle cx="116" cy="187" r="3" fill="#C4C4C4"/>
<circle cx="116" cy="177" r="3" fill="#C4C4C4"/>
<circle cx="116" cy="47" r="3" fill="#C4C4C4"/>
<circle cx="116" cy="67" r="3" fill="#C4C4C4"/>
<circle cx="116" cy="77" r="3" fill="#C4C4C4"/>
<circle cx="116" cy="57" r="3" fill="#C4C4C4"/>
<circle cx="116" cy="87" r="3" fill="#C4C4C4"/>
<circle cx="116" cy="107" r="3" fill="#C4C4C4"/>
<circle cx="116" cy="117" r="3" fill="#C4C4C4"/>
<circle cx="116" cy="97" r="3" fill="#C4C4C4"/>
<circle cx="116" cy="127" r="3" fill="#C4C4C4"/>
<circle cx="116" cy="147" r="3" fill="#C4C4C4"/>
<circle cx="116" cy="157" r="3" fill="#C4C4C4"/>
<circle cx="116" cy="137" r="3" fill="#C4C4C4"/>
<circle cx="5" cy="7" r="3" fill="#C4C4C4"/>
<circle cx="5" cy="27" r="3" fill="#C4C4C4"/>
<circle cx="5" cy="37" r="3" fill="#C4C4C4"/>
<circle cx="5" cy="17" r="3" fill="#C4C4C4"/>
<circle cx="5" cy="167" r="3" fill="#C4C4C4"/>
<circle cx="5" cy="187" r="3" fill="#C4C4C4"/>
<circle cx="5" cy="177" r="3" fill="#C4C4C4"/>
<circle cx="5" cy="47" r="3" fill="#C4C4C4"/>
<circle cx="5" cy="67" r="3" fill="#C4C4C4"/>
<circle cx="5" cy="77" r="3" fill="#C4C4C4"/>
<circle cx="5" cy="57" r="3" fill="#C4C4C4"/>
<circle cx="5" cy="87" r="3" fill="#C4C4C4"/>
<circle cx="5" cy="107" r="3" fill="#C4C4C4"/>
<circle cx="5" cy="117" r="3" fill="#C4C4C4"/>
<circle cx="5" cy="97" r="3" fill="#C4C4C4"/>
<circle cx="5" cy="127" r="3" fill="#C4C4C4"/>
<circle cx="5" cy="147" r="3" fill="#C4C4C4"/>
<circle cx="5" cy="157" r="3" fill="#C4C4C4"/>
<circle cx="5" cy="137" r="3" fill="#C4C4C4"/>
<rect x="35" y="72" width="2" height="3" transform="rotate(-90 35 72)" fill="#C4C4C4"/>
<rect x="88" y="72" width="2" height="3" transform="rotate(-90 88 72)" fill="#C4C4C4"/>
<rect x="82" y="72" width="2" height="3" transform="rotate(-90 82 72)" fill="#C4C4C4"/>
<rect x="76" y="72" width="2" height="3" transform="rotate(-90 76 72)" fill="#C4C4C4"/>
<rect x="70" y="72" width="2" height="3" transform="rotate(-90 70 72)" fill="#C4C4C4"/>
<rect x="64" y="72" width="2" height="3" transform="rotate(-90 64 72)" fill="#C4C4C4"/>
<rect x="59" y="72" width="2" height="3" transform="rotate(-90 59 72)" fill="#C4C4C4"/>
<rect x="53" y="72" width="2" height="3" transform="rotate(-90 53 72)" fill="#C4C4C4"/>
<rect x="47" y="72" width="2" height="3" transform="rotate(-90 47 72)" fill="#C4C4C4"/>
<rect x="31.1035" y="70" width="69" height="63.7931" transform="rotate(-90 31.1035 70)" fill="#565656"/>
<rect x="29" y="69" width="3" height="2" transform="rotate(-90 29 69)" fill="#C4C4C4"/>
<rect x="29" y="64" width="3" height="2" transform="rotate(-90 29 64)" fill="#C4C4C4"/>
<rect x="29" y="59" width="3" height="2" transform="rotate(-90 29 59)" fill="#C4C4C4"/>
<rect x="29" y="54" width="3" height="2" transform="rotate(-90 29 54)" fill="#C4C4C4"/>
<rect x="29" y="49" width="3" height="2" transform="rotate(-90 29 49)" fill="#C4C4C4"/>
<rect x="29" y="44" width="3" height="2" transform="rotate(-90 29 44)" fill="#C4C4C4"/>
<rect x="29" y="39" width="3" height="2" transform="rotate(-90 29 39)" fill="#C4C4C4"/>
<rect x="29" y="34" width="3" height="2" transform="rotate(-90 29 34)" fill="#C4C4C4"/>
<rect x="29" y="29" width="3" height="2" transform="rotate(-90 29 29)" fill="#C4C4C4"/>
<rect x="29" y="24" width="3" height="2" transform="rotate(-90 29 24)" fill="#C4C4C4"/>
<rect x="29" y="19" width="3" height="2" transform="rotate(-90 29 19)" fill="#C4C4C4"/>
<rect x="29" y="14" width="3" height="2" transform="rotate(-90 29 14)" fill="#C4C4C4"/>
<rect x="29" y="9" width="3" height="2" transform="rotate(-90 29 9)" fill="#C4C4C4"/>
<rect x="29" y="4" width="3" height="2" transform="rotate(-90 29 4)" fill="#C4C4C4"/>
<rect x="95" y="69" width="3" height="2" transform="rotate(-90 95 69)" fill="#C4C4C4"/>
<rect x="95" y="64" width="3" height="2" transform="rotate(-90 95 64)" fill="#C4C4C4"/>
<rect x="95" y="59" width="3" height="2" transform="rotate(-90 95 59)" fill="#C4C4C4"/>
<rect x="95" y="54" width="3" height="2" transform="rotate(-90 95 54)" fill="#C4C4C4"/>
<rect x="95" y="49" width="3" height="2" transform="rotate(-90 95 49)" fill="#C4C4C4"/>
<rect x="95" y="44" width="3" height="2" transform="rotate(-90 95 44)" fill="#C4C4C4"/>
<rect x="95" y="39" width="3" height="2" transform="rotate(-90 95 39)" fill="#C4C4C4"/>
<rect x="95" y="34" width="3" height="2" transform="rotate(-90 95 34)" fill="#C4C4C4"/>
<rect x="95" y="29" width="3" height="2" transform="rotate(-90 95 29)" fill="#C4C4C4"/>
<rect x="95" y="24" width="3" height="2" transform="rotate(-90 95 24)" fill="#C4C4C4"/>
<rect x="95" y="19" width="3" height="2" transform="rotate(-90 95 19)" fill="#C4C4C4"/>
<rect x="95" y="14" width="3" height="2" transform="rotate(-90 95 14)" fill="#C4C4C4"/>
<rect x="95" y="9" width="3" height="2" transform="rotate(-90 95 9)" fill="#C4C4C4"/>
<rect x="95" y="4" width="3" height="2" transform="rotate(-90 95 4)" fill="#C4C4C4"/>
<rect x="41" y="72" width="2" height="3" transform="rotate(-90 41 72)" fill="#C4C4C4"/>
<g filter="url(#filter0_dd_102_2)">
<path d="M38.7573 9.04248H36.4941V11.3101H39.1309V12H35.6899V5.60156H39.0869V6.2959H36.4941V8.35254H38.7573V9.04248ZM42.1016 9.14795C41.3779 8.93994 40.8506 8.68506 40.5195 8.3833C40.1914 8.07861 40.0273 7.70361 40.0273 7.2583C40.0273 6.75439 40.228 6.33838 40.6294 6.01025C41.0337 5.6792 41.5581 5.51367 42.2026 5.51367C42.6421 5.51367 43.0332 5.59863 43.376 5.76855C43.7217 5.93848 43.9883 6.17285 44.1758 6.47168C44.3662 6.77051 44.4614 7.09717 44.4614 7.45166H43.6133C43.6133 7.06494 43.4902 6.76172 43.2441 6.54199C42.998 6.31934 42.6509 6.20801 42.2026 6.20801C41.7866 6.20801 41.4614 6.30029 41.2271 6.48486C40.9956 6.6665 40.8799 6.91992 40.8799 7.24512C40.8799 7.50586 40.9897 7.72705 41.2095 7.90869C41.4321 8.0874 41.8086 8.25146 42.3389 8.40088C42.8721 8.55029 43.2881 8.71582 43.5869 8.89746C43.8887 9.07617 44.1113 9.28564 44.2549 9.52588C44.4014 9.76611 44.4746 10.0488 44.4746 10.374C44.4746 10.8926 44.2725 11.3086 43.8682 11.6221C43.4639 11.9326 42.9233 12.0879 42.2466 12.0879C41.8071 12.0879 41.397 12.0044 41.0161 11.8374C40.6353 11.6675 40.3408 11.436 40.1328 11.1431C39.9277 10.8501 39.8252 10.5176 39.8252 10.1455H40.6733C40.6733 10.5322 40.8154 10.8384 41.0996 11.064C41.3867 11.2866 41.769 11.3979 42.2466 11.3979C42.6919 11.3979 43.0332 11.3071 43.2705 11.1255C43.5078 10.9438 43.6265 10.6963 43.6265 10.3828C43.6265 10.0693 43.5166 9.82764 43.2969 9.65771C43.0771 9.48486 42.6787 9.31494 42.1016 9.14795ZM46.4038 9.49512V12H45.5601V5.60156H47.9199C48.6201 5.60156 49.168 5.78027 49.5635 6.1377C49.9619 6.49512 50.1611 6.96826 50.1611 7.55713C50.1611 8.17822 49.9663 8.65723 49.5767 8.99414C49.1899 9.32812 48.6348 9.49512 47.9111 9.49512H46.4038ZM46.4038 8.80518H47.9199C48.3711 8.80518 48.7168 8.69971 48.957 8.48877C49.1973 8.2749 49.3174 7.96729 49.3174 7.56592C49.3174 7.18506 49.1973 6.88037 48.957 6.65186C48.7168 6.42334 48.3872 6.30469 47.9683 6.2959H46.4038V8.80518ZM53.5845 9.41162H52.0815V12H51.2334V5.60156H53.3516C54.0723 5.60156 54.626 5.76562 55.0127 6.09375C55.4023 6.42188 55.5972 6.89941 55.5972 7.52637C55.5972 7.9248 55.4888 8.27197 55.272 8.56787C55.0581 8.86377 54.7593 9.08496 54.3755 9.23145L55.8784 11.9473V12H54.9731L53.5845 9.41162ZM52.0815 8.72168H53.3779C53.7969 8.72168 54.1294 8.61328 54.3755 8.39648C54.6245 8.17969 54.749 7.88965 54.749 7.52637C54.749 7.13086 54.6304 6.82764 54.3931 6.6167C54.1587 6.40576 53.8188 6.29883 53.3735 6.2959H52.0815V8.72168ZM60.4004 9.04248H57.6274V11.3101H60.8486V12H56.7837V5.60156H60.8047V6.2959H57.6274V8.35254H60.4004V9.04248ZM63.7842 9.14795C63.0605 8.93994 62.5332 8.68506 62.2021 8.3833C61.874 8.07861 61.71 7.70361 61.71 7.2583C61.71 6.75439 61.9106 6.33838 62.312 6.01025C62.7163 5.6792 63.2407 5.51367 63.8853 5.51367C64.3247 5.51367 64.7158 5.59863 65.0586 5.76855C65.4043 5.93848 65.6709 6.17285 65.8584 6.47168C66.0488 6.77051 66.144 7.09717 66.144 7.45166H65.2959C65.2959 7.06494 65.1729 6.76172 64.9268 6.54199C64.6807 6.31934 64.3335 6.20801 63.8853 6.20801C63.4692 6.20801 63.144 6.30029 62.9097 6.48486C62.6782 6.6665 62.5625 6.91992 62.5625 7.24512C62.5625 7.50586 62.6724 7.72705 62.8921 7.90869C63.1147 8.0874 63.4912 8.25146 64.0215 8.40088C64.5547 8.55029 64.9707 8.71582 65.2695 8.89746C65.5713 9.07617 65.7939 9.28564 65.9375 9.52588C66.084 9.76611 66.1572 10.0488 66.1572 10.374C66.1572 10.8926 65.9551 11.3086 65.5508 11.6221C65.1465 11.9326 64.606 12.0879 63.9292 12.0879C63.4897 12.0879 63.0796 12.0044 62.6987 11.8374C62.3179 11.6675 62.0234 11.436 61.8154 11.1431C61.6104 10.8501 61.5078 10.5176 61.5078 10.1455H62.356C62.356 10.5322 62.498 10.8384 62.7822 11.064C63.0693 11.2866 63.4517 11.3979 63.9292 11.3979C64.3745 11.3979 64.7158 11.3071 64.9531 11.1255C65.1904 10.9438 65.3091 10.6963 65.3091 10.3828C65.3091 10.0693 65.1992 9.82764 64.9795 9.65771C64.7598 9.48486 64.3613 9.31494 63.7842 9.14795ZM69.1279 9.14795C68.4043 8.93994 67.877 8.68506 67.5459 8.3833C67.2178 8.07861 67.0537 7.70361 67.0537 7.2583C67.0537 6.75439 67.2544 6.33838 67.6558 6.01025C68.0601 5.6792 68.5845 5.51367 69.229 5.51367C69.6685 5.51367 70.0596 5.59863 70.4023 5.76855C70.748 5.93848 71.0146 6.17285 71.2021 6.47168C71.3926 6.77051 71.4878 7.09717 71.4878 7.45166H70.6396C70.6396 7.06494 70.5166 6.76172 70.2705 6.54199C70.0244 6.31934 69.6772 6.20801 69.229 6.20801C68.813 6.20801 68.4878 6.30029 68.2534 6.48486C68.022 6.6665 67.9062 6.91992 67.9062 7.24512C67.9062 7.50586 68.0161 7.72705 68.2358 7.90869C68.4585 8.0874 68.835 8.25146 69.3652 8.40088C69.8984 8.55029 70.3145 8.71582 70.6133 8.89746C70.915 9.07617 71.1377 9.28564 71.2812 9.52588C71.4277 9.76611 71.501 10.0488 71.501 10.374C71.501 10.8926 71.2988 11.3086 70.8945 11.6221C70.4902 11.9326 69.9497 12.0879 69.2729 12.0879C68.8335 12.0879 68.4233 12.0044 68.0425 11.8374C67.6616 11.6675 67.3672 11.436 67.1592 11.1431C66.9541 10.8501 66.8516 10.5176 66.8516 10.1455H67.6997C67.6997 10.5322 67.8418 10.8384 68.126 11.064C68.4131 11.2866 68.7954 11.3979 69.2729 11.3979C69.7183 11.3979 70.0596 11.3071 70.2969 11.1255C70.5342 10.9438 70.6528 10.6963 70.6528 10.3828C70.6528 10.0693 70.543 9.82764 70.3232 9.65771C70.1035 9.48486 69.7051 9.31494 69.1279 9.14795ZM73.4917 12H72.6479V5.60156H73.4917V12ZM78.5674 9.17432H75.8823V12H75.0386V5.60156H79.0024V6.2959H75.8823V8.48438H78.5674V9.17432Z" fill="#D4CEC2"/>
</g>
<path d="M38.4219 20.3569H36.8813V21.6167H38.6709V22H36.4126V18.4453H38.6465V18.8311H36.8813V19.9736H38.4219V20.3569ZM40.3018 20.4155C39.8997 20.3 39.6068 20.1584 39.4229 19.9907C39.2406 19.8215 39.1494 19.6131 39.1494 19.3657C39.1494 19.0858 39.2609 18.8547 39.4839 18.6724C39.7085 18.4884 39.9998 18.3965 40.3579 18.3965C40.6021 18.3965 40.8193 18.4437 41.0098 18.5381C41.2018 18.6325 41.3499 18.7627 41.4541 18.9287C41.5599 19.0947 41.6128 19.2762 41.6128 19.4731H41.1416C41.1416 19.2583 41.0732 19.0898 40.9365 18.9678C40.7998 18.8441 40.6069 18.7822 40.3579 18.7822C40.1268 18.7822 39.9461 18.8335 39.8159 18.936C39.6873 19.0369 39.623 19.1777 39.623 19.3584C39.623 19.5033 39.6841 19.6261 39.8062 19.7271C39.9299 19.8263 40.139 19.9175 40.4336 20.0005C40.7298 20.0835 40.9609 20.1755 41.127 20.2764C41.2946 20.3757 41.4183 20.492 41.498 20.6255C41.5794 20.759 41.6201 20.916 41.6201 21.0967C41.6201 21.3848 41.5078 21.6159 41.2832 21.79C41.0586 21.9626 40.7583 22.0488 40.3823 22.0488C40.1382 22.0488 39.9103 22.0024 39.6987 21.9097C39.4871 21.8153 39.3236 21.6867 39.208 21.5239C39.0941 21.3612 39.0371 21.1764 39.0371 20.9697H39.5083C39.5083 21.1846 39.5872 21.3547 39.7451 21.48C39.9046 21.6037 40.117 21.6655 40.3823 21.6655C40.6297 21.6655 40.8193 21.6151 40.9512 21.5142C41.083 21.4132 41.1489 21.2757 41.1489 21.1016C41.1489 20.9274 41.0879 20.7931 40.9658 20.6987C40.8438 20.6027 40.6224 20.5083 40.3018 20.4155ZM42.6919 20.6084V22H42.2231V18.4453H43.5342C43.9232 18.4453 44.2275 18.5446 44.4473 18.7432C44.6686 18.9417 44.7793 19.2046 44.7793 19.5317C44.7793 19.8768 44.6711 20.1429 44.4546 20.3301C44.2397 20.5156 43.9313 20.6084 43.5293 20.6084H42.6919ZM42.6919 20.2251H43.5342C43.7848 20.2251 43.9769 20.1665 44.1104 20.0493C44.2438 19.9305 44.3105 19.7596 44.3105 19.5366C44.3105 19.325 44.2438 19.1558 44.1104 19.0288C43.9769 18.9019 43.7938 18.8359 43.561 18.8311H42.6919V20.2251ZM45.917 20.0029H46.2563C46.4696 19.9997 46.6372 19.9435 46.7593 19.8345C46.8813 19.7254 46.9424 19.5781 46.9424 19.3926C46.9424 18.9759 46.7349 18.7676 46.3198 18.7676C46.1245 18.7676 45.9683 18.8237 45.8511 18.936C45.7355 19.0467 45.6777 19.194 45.6777 19.3779H45.2261C45.2261 19.0964 45.3286 18.8628 45.5337 18.6772C45.7404 18.4901 46.0024 18.3965 46.3198 18.3965C46.6551 18.3965 46.918 18.4852 47.1084 18.6626C47.2988 18.84 47.394 19.0866 47.394 19.4023C47.394 19.557 47.3436 19.7067 47.2427 19.8516C47.1434 19.9964 47.0075 20.1047 46.835 20.1763C47.0303 20.2381 47.1808 20.3407 47.2866 20.4839C47.394 20.6271 47.4478 20.8021 47.4478 21.0088C47.4478 21.3278 47.3436 21.5809 47.1353 21.7681C46.9269 21.9552 46.6559 22.0488 46.3223 22.0488C45.9886 22.0488 45.7168 21.9585 45.5068 21.7778C45.2985 21.5972 45.1943 21.3587 45.1943 21.0625H45.6484C45.6484 21.2497 45.7095 21.3994 45.8315 21.5117C45.9536 21.624 46.1172 21.6802 46.3223 21.6802C46.5404 21.6802 46.7072 21.6232 46.8228 21.5093C46.9383 21.3953 46.9961 21.2318 46.9961 21.0186C46.9961 20.8118 46.9326 20.6532 46.8057 20.5425C46.6787 20.4318 46.4956 20.3748 46.2563 20.3716H45.917V20.0029ZM50.397 22H48.0679V21.6753L49.2983 20.3081C49.4806 20.1014 49.606 19.9338 49.6743 19.8052C49.7443 19.675 49.7793 19.5407 49.7793 19.4023C49.7793 19.2168 49.7231 19.0646 49.6108 18.9458C49.4985 18.827 49.3488 18.7676 49.1616 18.7676C48.937 18.7676 48.762 18.8319 48.6367 18.9604C48.513 19.0874 48.4512 19.2648 48.4512 19.4927H47.9995C47.9995 19.1655 48.1045 18.901 48.3145 18.6992C48.526 18.4974 48.8084 18.3965 49.1616 18.3965C49.492 18.3965 49.7533 18.4836 49.9453 18.6577C50.1374 18.8302 50.2334 19.0605 50.2334 19.3486C50.2334 19.6986 50.0104 20.1152 49.5645 20.5986L48.6123 21.6313H50.397V22ZM51.8618 20.6743H50.6704V20.3057H51.8618V20.6743ZM53.1411 20.8794L53.2095 21.3481L53.3096 20.9258L54.0127 18.4453H54.4082L55.0942 20.9258L55.1919 21.3555L55.2676 20.877L55.8193 18.4453H56.2905L55.4287 22H55.0015L54.269 19.4097L54.2129 19.1387L54.1567 19.4097L53.3975 22H52.9702L52.1108 18.4453H52.5796L53.1411 20.8794ZM58.1167 20.562H57.2817V22H56.8105V18.4453H57.9873C58.3877 18.4453 58.6953 18.5365 58.9102 18.7188C59.1266 18.901 59.2349 19.1663 59.2349 19.5146C59.2349 19.736 59.1746 19.9289 59.0542 20.0933C58.9354 20.2576 58.7694 20.3805 58.5562 20.4619L59.3911 21.9707V22H58.8882L58.1167 20.562ZM57.2817 20.1787H58.002C58.2347 20.1787 58.4194 20.1185 58.5562 19.998C58.6945 19.8776 58.7637 19.7165 58.7637 19.5146C58.7637 19.2949 58.6978 19.1265 58.5659 19.0093C58.4357 18.8921 58.2469 18.8327 57.9995 18.8311H57.2817V20.1787ZM62.6284 20.3374C62.6284 20.6857 62.5698 20.9901 62.4526 21.2505C62.3354 21.5093 62.1694 21.707 61.9546 21.8438C61.7397 21.9805 61.4891 22.0488 61.2026 22.0488C60.9227 22.0488 60.6745 21.9805 60.458 21.8438C60.2415 21.7054 60.0731 21.5093 59.9526 21.2554C59.8338 20.9998 59.7728 20.7044 59.7695 20.3691V20.1128C59.7695 19.771 59.8289 19.4691 59.9478 19.207C60.0666 18.945 60.2342 18.7448 60.4507 18.6064C60.6688 18.4665 60.9178 18.3965 61.1978 18.3965C61.4826 18.3965 61.7332 18.4657 61.9497 18.604C62.1678 18.7407 62.3354 18.9401 62.4526 19.2021C62.5698 19.4626 62.6284 19.7661 62.6284 20.1128V20.3374ZM62.1621 20.1079C62.1621 19.6864 62.0775 19.3633 61.9082 19.1387C61.7389 18.9124 61.5021 18.7993 61.1978 18.7993C60.9015 18.7993 60.668 18.9124 60.4971 19.1387C60.3278 19.3633 60.2407 19.6758 60.2358 20.0762V20.3374C60.2358 20.7459 60.3213 21.0674 60.4922 21.3018C60.6647 21.5345 60.9015 21.6509 61.2026 21.6509C61.5054 21.6509 61.7397 21.541 61.9058 21.3213C62.0718 21.0999 62.1572 20.7834 62.1621 20.3716V20.1079ZM66.0659 20.3374C66.0659 20.6857 66.0073 20.9901 65.8901 21.2505C65.7729 21.5093 65.6069 21.707 65.3921 21.8438C65.1772 21.9805 64.9266 22.0488 64.6401 22.0488C64.3602 22.0488 64.112 21.9805 63.8955 21.8438C63.679 21.7054 63.5106 21.5093 63.3901 21.2554C63.2713 20.9998 63.2103 20.7044 63.207 20.3691V20.1128C63.207 19.771 63.2664 19.4691 63.3853 19.207C63.5041 18.945 63.6717 18.7448 63.8882 18.6064C64.1063 18.4665 64.3553 18.3965 64.6353 18.3965C64.9201 18.3965 65.1707 18.4657 65.3872 18.604C65.6053 18.7407 65.7729 18.9401 65.8901 19.2021C66.0073 19.4626 66.0659 19.7661 66.0659 20.1128V20.3374ZM65.5996 20.1079C65.5996 19.6864 65.515 19.3633 65.3457 19.1387C65.1764 18.9124 64.9396 18.7993 64.6353 18.7993C64.339 18.7993 64.1055 18.9124 63.9346 19.1387C63.7653 19.3633 63.6782 19.6758 63.6733 20.0762V20.3374C63.6733 20.7459 63.7588 21.0674 63.9297 21.3018C64.1022 21.5345 64.339 21.6509 64.6401 21.6509C64.9429 21.6509 65.1772 21.541 65.3433 21.3213C65.5093 21.0999 65.5947 20.7834 65.5996 20.3716V20.1079ZM67.3745 18.4453L68.5366 21.3457L69.6987 18.4453H70.3066V22H69.8379V20.6157L69.8818 19.1216L68.7148 22H68.356L67.1914 19.1289L67.2378 20.6157V22H66.769V18.4453H67.3745Z" fill="#D4CEC2"/>
<rect x="69" y="126" width="12" height="23" transform="rotate(-180 69 126)" fill="black"/>
<rect x="74" y="120" width="5" height="11" transform="rotate(-180 74 120)" fill="#C6C6C6"/>
<rect x="57" y="123" width="8" height="3" transform="rotate(-180 57 123)" fill="#C4C4C4"/>
<rect x="57" y="116" width="8" height="3" transform="rotate(-180 57 116)" fill="#C4C4C4"/>
<rect x="57" y="109" width="8" height="3" transform="rotate(-180 57 109)" fill="#C4C4C4"/>
<rect x="27" y="180.129" width="16.2581" height="12" transform="rotate(-90 27 180.129)" fill="#C4C4C4"/>
<rect x="31" y="184" width="4" height="4" transform="rotate(-90 31 184)" fill="#C4C4C4"/>
<rect x="31" y="164" width="4" height="4" transform="rotate(-90 31 164)" fill="#C4C4C4"/>
<circle cx="33" cy="172" r="3" transform="rotate(-90 33 172)" fill="#565656"/>
<rect x="83" y="180.129" width="16.2581" height="12" transform="rotate(-90 83 180.129)" fill="#C4C4C4"/>
<rect x="87" y="184" width="4" height="4" transform="rotate(-90 87 184)" fill="#C4C4C4"/>
<rect x="87" y="164" width="4" height="4" transform="rotate(-90 87 164)" fill="#C4C4C4"/>
<circle cx="89" cy="172" r="3" transform="rotate(-90 89 172)" fill="#565656"/>
<rect x="46.9787" y="200" width="31" height="27.0426" transform="rotate(-90 46.9787 200)" fill="#C4C4C4"/>
<path d="M72.0426 184.5C77.3192 184.5 77.3192 179.155 72.0426 179.155V184.5Z" fill="#C4C4C4"/>
<path d="M48.9574 179.155C43.6808 179.155 43.6808 184.5 48.9574 184.5V179.155Z" fill="#C4C4C4"/>
<rect x="51" y="130" width="19" height="19" fill="black"/>
<rect x="70" y="145" width="1" height="1" fill="#C4C4C4"/>
<rect x="70" y="133" width="1" height="1" fill="#C4C4C4"/>
<rect x="70" y="135" width="1" height="1" fill="#C4C4C4"/>
<rect x="70" y="137" width="1" height="1" fill="#C4C4C4"/>
<rect x="70" y="139" width="1" height="1" fill="#C4C4C4"/>
<rect x="70" y="141" width="1" height="1" fill="#C4C4C4"/>
<rect x="70" y="143" width="1" height="1" fill="#C4C4C4"/>
<rect x="67" y="130" width="1" height="1" transform="rotate(-180 67 130)" fill="#C4C4C4"/>
<rect x="55" y="130" width="1" height="1" transform="rotate(-180 55 130)" fill="#C4C4C4"/>
<rect x="57" y="130" width="1" height="1" transform="rotate(-180 57 130)" fill="#C4C4C4"/>
<rect x="59" y="130" width="1" height="1" transform="rotate(-180 59 130)" fill="#C4C4C4"/>
<rect x="61" y="130" width="1" height="1" transform="rotate(-180 61 130)" fill="#C4C4C4"/>
<rect x="63" y="130" width="1" height="1" transform="rotate(-180 63 130)" fill="#C4C4C4"/>
<rect x="65" y="130" width="1" height="1" transform="rotate(-180 65 130)" fill="#C4C4C4"/>
<rect x="67" y="150" width="1" height="1" transform="rotate(-180 67 150)" fill="#C4C4C4"/>
<rect x="55" y="150" width="1" height="1" transform="rotate(-180 55 150)" fill="#C4C4C4"/>
<rect x="57" y="150" width="1" height="1" transform="rotate(-180 57 150)" fill="#C4C4C4"/>
<rect x="59" y="150" width="1" height="1" transform="rotate(-180 59 150)" fill="#C4C4C4"/>
<rect x="61" y="150" width="1" height="1" transform="rotate(-180 61 150)" fill="#C4C4C4"/>
<rect x="63" y="150" width="1" height="1" transform="rotate(-180 63 150)" fill="#C4C4C4"/>
<rect x="65" y="150" width="1" height="1" transform="rotate(-180 65 150)" fill="#C4C4C4"/>
<rect x="50" y="145" width="1" height="1" fill="#C4C4C4"/>
<rect x="50" y="133" width="1" height="1" fill="#C4C4C4"/>
<rect x="50" y="135" width="1" height="1" fill="#C4C4C4"/>
<rect x="50" y="137" width="1" height="1" fill="#C4C4C4"/>
<rect x="50" y="139" width="1" height="1" fill="#C4C4C4"/>
<rect x="50" y="141" width="1" height="1" fill="#C4C4C4"/>
<rect x="50" y="143" width="1" height="1" fill="#C4C4C4"/>
<rect x="84" y="145" width="5" height="10" transform="rotate(-90 84 145)" fill="black"/>
<rect x="85" y="140" width="3" height="2" transform="rotate(-90 85 140)" fill="#C4C4C4"/>
<rect x="91" y="140" width="3" height="2" transform="rotate(-90 91 140)" fill="#C4C4C4"/>
<rect x="88" y="148" width="3" height="2" transform="rotate(-90 88 148)" fill="#C4C4C4"/>
<rect x="94" y="112" width="5" height="10" transform="rotate(90 94 112)" fill="black"/>
<rect x="93" y="117" width="3" height="2" transform="rotate(90 93 117)" fill="#C4C4C4"/>
<rect x="87" y="117" width="3" height="2" transform="rotate(90 87 117)" fill="#C4C4C4"/>
<rect x="90" y="109" width="3" height="2" transform="rotate(90 90 109)" fill="#C4C4C4"/>
<rect x="42" y="146" width="3" height="2" transform="rotate(90 42 146)" fill="black"/>
<rect x="42" y="149" width="1" height="2" transform="rotate(90 42 149)" fill="#C4C4C4"/>
<rect x="42" y="145" width="1" height="2" transform="rotate(90 42 145)" fill="#C4C4C4"/>
<rect x="77" y="149" width="3" height="2" transform="rotate(90 77 149)" fill="black"/>
<rect x="77" y="152" width="1" height="2" transform="rotate(90 77 152)" fill="#C4C4C4"/>
<rect x="77" y="148" width="1" height="2" transform="rotate(90 77 148)" fill="#C4C4C4"/>
<rect x="80" y="128" width="3" height="2" transform="rotate(90 80 128)" fill="black"/>
<rect x="80" y="131" width="1" height="2" transform="rotate(90 80 131)" fill="#C4C4C4"/>
<rect x="80" y="127" width="1" height="2" transform="rotate(90 80 127)" fill="#C4C4C4"/>
<rect x="77" y="128" width="3" height="2" transform="rotate(90 77 128)" fill="black"/>
<rect x="77" y="131" width="1" height="2" transform="rotate(90 77 131)" fill="#C4C4C4"/>
<rect x="77" y="127" width="1" height="2" transform="rotate(90 77 127)" fill="#C4C4C4"/>
<rect x="80" y="149" width="3" height="2" transform="rotate(90 80 149)" fill="black"/>
<rect x="80" y="152" width="1" height="2" transform="rotate(90 80 152)" fill="#C4C4C4"/>
<rect x="80" y="148" width="1" height="2" transform="rotate(90 80 148)" fill="#C4C4C4"/>
<rect x="68" y="158" width="3" height="2" transform="rotate(90 68 158)" fill="black"/>
<rect x="68" y="161" width="1" height="2" transform="rotate(90 68 161)" fill="#C4C4C4"/>
<rect x="68" y="157" width="1" height="2" transform="rotate(90 68 157)" fill="#C4C4C4"/>
<rect x="62" y="158" width="3" height="2" transform="rotate(90 62 158)" fill="black"/>
<rect x="62" y="161" width="1" height="2" transform="rotate(90 62 161)" fill="#C4C4C4"/>
<rect x="62" y="157" width="1" height="2" transform="rotate(90 62 157)" fill="#C4C4C4"/>
<rect x="56" y="158" width="3" height="2" transform="rotate(90 56 158)" fill="black"/>
<rect x="56" y="161" width="1" height="2" transform="rotate(90 56 161)" fill="#C4C4C4"/>
<rect x="56" y="157" width="1" height="2" transform="rotate(90 56 157)" fill="#C4C4C4"/>
<rect x="80" y="163" width="3" height="2" transform="rotate(90 80 163)" fill="black"/>
<rect x="80" y="166" width="1" height="2" transform="rotate(90 80 166)" fill="#C4C4C4"/>
<rect x="80" y="162" width="1" height="2" transform="rotate(90 80 162)" fill="#C4C4C4"/>
<rect x="45" y="146" width="3" height="2" transform="rotate(90 45 146)" fill="black"/>
<rect x="45" y="149" width="1" height="2" transform="rotate(90 45 149)" fill="#C4C4C4"/>
<rect x="45" y="145" width="1" height="2" transform="rotate(90 45 145)" fill="#C4C4C4"/>
<rect x="41" y="142" width="3" height="2" fill="black"/>
<rect x="44" y="142" width="1" height="2" fill="#C4C4C4"/>
<rect x="40" y="142" width="1" height="2" fill="#C4C4C4"/>
<rect x="41" y="139" width="3" height="2" fill="black"/>
<rect x="44" y="139" width="1" height="2" fill="#C4C4C4"/>
<rect x="40" y="139" width="1" height="2" fill="#C4C4C4"/>
<rect x="30" y="118" width="3" height="2" fill="black"/>
<rect x="33" y="118" width="1" height="2" fill="#C4C4C4"/>
<rect x="29" y="118" width="1" height="2" fill="#C4C4C4"/>
<rect x="41" y="136" width="3" height="2" fill="black"/>
<rect x="44" y="136" width="1" height="2" fill="#C4C4C4"/>
<rect x="40" y="136" width="1" height="2" fill="#C4C4C4"/>
<rect x="41" y="133" width="3" height="2" fill="black"/>
<rect x="44" y="133" width="1" height="2" fill="#C4C4C4"/>
<rect x="40" y="133" width="1" height="2" fill="#C4C4C4"/>
<rect x="30" y="124" width="3" height="2" fill="black"/>
<rect x="33" y="124" width="1" height="2" fill="#C4C4C4"/>
<rect x="29" y="124" width="1" height="2" fill="#C4C4C4"/>
<rect x="30" y="121" width="3" height="2" fill="black"/>
<rect x="33" y="121" width="1" height="2" fill="#C4C4C4"/>
<rect x="29" y="121" width="1" height="2" fill="#C4C4C4"/>
<rect x="33" y="145" width="3" height="2" transform="rotate(90 33 145)" fill="black"/>
<rect x="33" y="148" width="1" height="2" transform="rotate(90 33 148)" fill="#C4C4C4"/>
<rect x="33" y="144" width="1" height="2" transform="rotate(90 33 144)" fill="#C4C4C4"/>
<rect x="34" y="134.8" width="5.4" height="4" transform="rotate(90 34 134.8)" fill="black"/>
<rect x="34" y="140.2" width="1.8" height="4" transform="rotate(90 34 140.2)" fill="#C4C4C4"/>
<rect x="34" y="133" width="1.8" height="4" transform="rotate(90 34 133)" fill="#C4C4C4"/>
<rect x="33" y="105.8" width="5.4" height="4" transform="rotate(90 33 105.8)" fill="black"/>
<rect x="33" y="111.2" width="1.8" height="4" transform="rotate(90 33 111.2)" fill="#C4C4C4"/>
<rect x="33" y="104" width="1.8" height="4" transform="rotate(90 33 104)" fill="#C4C4C4"/>
<rect x="41" y="105.8" width="5.4" height="4" transform="rotate(90 41 105.8)" fill="black"/>
<rect x="41" y="111.2" width="1.8" height="4" transform="rotate(90 41 111.2)" fill="#C4C4C4"/>
<rect x="41" y="104" width="1.8" height="4" transform="rotate(90 41 104)" fill="#C4C4C4"/>
<rect x="41" y="119.6" width="4.8" height="4" transform="rotate(90 41 119.6)" fill="black"/>
<rect x="41" y="124.4" width="1.6" height="4" transform="rotate(90 41 124.4)" fill="#C4C4C4"/>
<rect x="41" y="118" width="1.6" height="4" transform="rotate(90 41 118)" fill="#C4C4C4"/>
<path d="M12.9971 3.05273V3.39209C13.0003 3.60531 13.0565 3.77295 13.1655 3.89502C13.2746 4.01709 13.4219 4.07812 13.6074 4.07812C14.0241 4.07812 14.2324 3.87061 14.2324 3.45557C14.2324 3.26025 14.1763 3.104 14.064 2.98682C13.9533 2.87126 13.806 2.81348 13.6221 2.81348V2.36182C13.9036 2.36182 14.1372 2.46436 14.3228 2.66943C14.5099 2.87614 14.6035 3.13818 14.6035 3.45557C14.6035 3.79085 14.5148 4.05371 14.3374 4.24414C14.16 4.43457 13.9134 4.52979 13.5977 4.52979C13.443 4.52979 13.2933 4.47933 13.1484 4.37842C13.0036 4.27913 12.8953 4.14323 12.8237 3.9707C12.7619 4.16602 12.6593 4.31657 12.5161 4.42236C12.3729 4.52979 12.1979 4.5835 11.9912 4.5835C11.6722 4.5835 11.4191 4.47933 11.2319 4.271C11.0448 4.06266 10.9512 3.79167 10.9512 3.45801C10.9512 3.12435 11.0415 2.85254 11.2222 2.64258C11.4028 2.43424 11.6413 2.33008 11.9375 2.33008V2.78418C11.7503 2.78418 11.6006 2.84521 11.4883 2.96729C11.376 3.08936 11.3198 3.25293 11.3198 3.45801C11.3198 3.67611 11.3768 3.84294 11.4907 3.9585C11.6047 4.07406 11.7682 4.13184 11.9814 4.13184C12.1882 4.13184 12.3468 4.06836 12.4575 3.94141C12.5682 3.81445 12.6252 3.63135 12.6284 3.39209V3.05273H12.9971ZM11.6226 6.49756L14.5547 7.51318V8.02588L11 6.70752V6.29248L14.5547 4.97656V5.48682L11.6226 6.49756ZM12.9971 9.04395V9.3833C13.0003 9.59652 13.0565 9.76416 13.1655 9.88623C13.2746 10.0083 13.4219 10.0693 13.6074 10.0693C14.0241 10.0693 14.2324 9.86182 14.2324 9.44678C14.2324 9.25146 14.1763 9.09521 14.064 8.97803C13.9533 8.86247 13.806 8.80469 13.6221 8.80469V8.35303C13.9036 8.35303 14.1372 8.45557 14.3228 8.66064C14.5099 8.86735 14.6035 9.12939 14.6035 9.44678C14.6035 9.78206 14.5148 10.0449 14.3374 10.2354C14.16 10.4258 13.9134 10.521 13.5977 10.521C13.443 10.521 13.2933 10.4705 13.1484 10.3696C13.0036 10.2703 12.8953 10.1344 12.8237 9.96191C12.7619 10.1572 12.6593 10.3078 12.5161 10.4136C12.3729 10.521 12.1979 10.5747 11.9912 10.5747C11.6722 10.5747 11.4191 10.4705 11.2319 10.2622C11.0448 10.0539 10.9512 9.78288 10.9512 9.44922C10.9512 9.11556 11.0415 8.84375 11.2222 8.63379C11.4028 8.42546 11.6413 8.32129 11.9375 8.32129V8.77539C11.7503 8.77539 11.6006 8.83643 11.4883 8.9585C11.376 9.08057 11.3198 9.24414 11.3198 9.44922C11.3198 9.66732 11.3768 9.83415 11.4907 9.94971C11.6047 10.0653 11.7682 10.123 11.9814 10.123C12.1882 10.123 12.3468 10.0596 12.4575 9.93262C12.5682 9.80566 12.6252 9.62256 12.6284 9.3833V9.04395H12.9971Z" fill="white"/>
<path d="M12.6431 16.7188V15.1782H11.3833V16.9678H11V14.7095H14.5547V16.9434H14.1689V15.1782H13.0264V16.7188H12.6431ZM11 20.2832V19.812L13.7393 18.0225H11V17.5513H14.5547V18.0225L11.8032 19.8169H14.5547V20.2832H11Z" fill="white"/>
<path d="M11.6226 24.9204L14.5547 25.936V26.4487L11 25.1304V24.7153L14.5547 23.3994V23.9097L11.6226 24.9204ZM12.3916 27.396H11V26.9272H14.5547V28.2383C14.5547 28.6273 14.4554 28.9316 14.2568 29.1514C14.0583 29.3727 13.7954 29.4834 13.4683 29.4834C13.1232 29.4834 12.8571 29.3752 12.6699 29.1587C12.4844 28.9438 12.3916 28.6354 12.3916 28.2334V27.396ZM12.7749 27.396V28.2383C12.7749 28.4889 12.8335 28.681 12.9507 28.8145C13.0695 28.9479 13.2404 29.0146 13.4634 29.0146C13.675 29.0146 13.8442 28.9479 13.9712 28.8145C14.0981 28.681 14.1641 28.4979 14.1689 28.2651V27.396H12.7749Z" fill="white"/>
<path d="M11.6226 34.7153L14.5547 35.731V36.2437L11 34.9253V34.5103L14.5547 33.1943V33.7046L11.6226 34.7153ZM11 39.4541V38.9829L13.7393 37.1934H11V36.7222H14.5547V37.1934L11.8032 38.9878H14.5547V39.4541H11Z" fill="white"/>
<path d="M12.9971 45.1445V45.4839C13.0003 45.6971 13.0565 45.8647 13.1655 45.9868C13.2746 46.1089 13.4219 46.1699 13.6074 46.1699C14.0241 46.1699 14.2324 45.9624 14.2324 45.5474C14.2324 45.3521 14.1763 45.1958 14.064 45.0786C13.9533 44.9631 13.806 44.9053 13.6221 44.9053V44.4536C13.9036 44.4536 14.1372 44.5562 14.3228 44.7612C14.5099 44.9679 14.6035 45.23 14.6035 45.5474C14.6035 45.8826 14.5148 46.1455 14.3374 46.3359C14.16 46.5264 13.9134 46.6216 13.5977 46.6216C13.443 46.6216 13.2933 46.5711 13.1484 46.4702C13.0036 46.3709 12.8953 46.235 12.8237 46.0625C12.7619 46.2578 12.6593 46.4084 12.5161 46.5142C12.3729 46.6216 12.1979 46.6753 11.9912 46.6753C11.6722 46.6753 11.4191 46.5711 11.2319 46.3628C11.0448 46.1545 10.9512 45.8835 10.9512 45.5498C10.9512 45.2161 11.0415 44.9443 11.2222 44.7344C11.4028 44.526 11.6413 44.4219 11.9375 44.4219V44.876C11.7503 44.876 11.6006 44.937 11.4883 45.0591C11.376 45.1812 11.3198 45.3447 11.3198 45.5498C11.3198 45.7679 11.3768 45.9347 11.4907 46.0503C11.6047 46.1659 11.7682 46.2236 11.9814 46.2236C12.1882 46.2236 12.3468 46.1602 12.4575 46.0332C12.5682 45.9062 12.6252 45.7231 12.6284 45.4839V45.1445H12.9971ZM12.1938 49.2021V49.6953H11.8252V49.2021H11V48.748H11.8252V47.1294H12.0913L14.5547 48.7212V49.2021H12.1938ZM12.1938 47.6421V48.748H13.937L13.8394 48.6943L12.1938 47.6421Z" fill="white"/>
<path d="M12.9971 55.1445V55.4839C13.0003 55.6971 13.0565 55.8647 13.1655 55.9868C13.2746 56.1089 13.4219 56.1699 13.6074 56.1699C14.0241 56.1699 14.2324 55.9624 14.2324 55.5474C14.2324 55.3521 14.1763 55.1958 14.064 55.0786C13.9533 54.9631 13.806 54.9053 13.6221 54.9053V54.4536C13.9036 54.4536 14.1372 54.5562 14.3228 54.7612C14.5099 54.9679 14.6035 55.23 14.6035 55.5474C14.6035 55.8826 14.5148 56.1455 14.3374 56.3359C14.16 56.5264 13.9134 56.6216 13.5977 56.6216C13.443 56.6216 13.2933 56.5711 13.1484 56.4702C13.0036 56.3709 12.8953 56.235 12.8237 56.0625C12.7619 56.2578 12.6593 56.4084 12.5161 56.5142C12.3729 56.6216 12.1979 56.6753 11.9912 56.6753C11.6722 56.6753 11.4191 56.5711 11.2319 56.3628C11.0448 56.1545 10.9512 55.8835 10.9512 55.5498C10.9512 55.2161 11.0415 54.9443 11.2222 54.7344C11.4028 54.526 11.6413 54.4219 11.9375 54.4219V54.876C11.7503 54.876 11.6006 54.937 11.4883 55.0591C11.376 55.1812 11.3198 55.3447 11.3198 55.5498C11.3198 55.7679 11.3768 55.9347 11.4907 56.0503C11.6047 56.1659 11.7682 56.2236 11.9814 56.2236C12.1882 56.2236 12.3468 56.1602 12.4575 56.0332C12.5682 55.9062 12.6252 55.7231 12.6284 55.4839V55.1445H12.9971ZM12.7822 57.5029L14.5547 57.6836V59.5049H14.1372V58.0669L13.168 57.9595C13.2705 58.1336 13.3218 58.3314 13.3218 58.5527C13.3218 58.8766 13.2144 59.1338 12.9995 59.3242C12.7863 59.5146 12.4974 59.6099 12.1328 59.6099C11.7666 59.6099 11.4777 59.5106 11.2661 59.312C11.0562 59.1151 10.9512 58.8392 10.9512 58.4844C10.9512 58.1702 11.0382 57.9139 11.2124 57.7153C11.3866 57.5168 11.6274 57.4036 11.9351 57.376V57.8032C11.7316 57.8309 11.5778 57.9033 11.4736 58.0205C11.3711 58.1377 11.3198 58.2923 11.3198 58.4844C11.3198 58.6943 11.3914 58.8587 11.5347 58.9775C11.6779 59.098 11.8757 59.1582 12.1279 59.1582C12.3656 59.1582 12.556 59.0931 12.6992 58.9629C12.8441 58.8343 12.9165 58.6626 12.9165 58.4478C12.9165 58.2508 12.8734 58.0962 12.7871 57.9839L12.6895 57.8643L12.7822 57.5029Z" fill="white"/>
<path d="M12.9971 75.1445V75.4839C13.0003 75.6971 13.0565 75.8647 13.1655 75.9868C13.2746 76.1089 13.4219 76.1699 13.6074 76.1699C14.0241 76.1699 14.2324 75.9624 14.2324 75.5474C14.2324 75.3521 14.1763 75.1958 14.064 75.0786C13.9533 74.9631 13.806 74.9053 13.6221 74.9053V74.4536C13.9036 74.4536 14.1372 74.5562 14.3228 74.7612C14.5099 74.9679 14.6035 75.23 14.6035 75.5474C14.6035 75.8826 14.5148 76.1455 14.3374 76.3359C14.16 76.5264 13.9134 76.6216 13.5977 76.6216C13.443 76.6216 13.2933 76.5711 13.1484 76.4702C13.0036 76.3709 12.8953 76.235 12.8237 76.0625C12.7619 76.2578 12.6593 76.4084 12.5161 76.5142C12.3729 76.6216 12.1979 76.6753 11.9912 76.6753C11.6722 76.6753 11.4191 76.5711 11.2319 76.3628C11.0448 76.1545 10.9512 75.8835 10.9512 75.5498C10.9512 75.2161 11.0415 74.9443 11.2222 74.7344C11.4028 74.526 11.6413 74.4219 11.9375 74.4219V74.876C11.7503 74.876 11.6006 74.937 11.4883 75.0591C11.376 75.1812 11.3198 75.3447 11.3198 75.5498C11.3198 75.7679 11.3768 75.9347 11.4907 76.0503C11.6047 76.1659 11.7682 76.2236 11.9814 76.2236C12.1882 76.2236 12.3468 76.1602 12.4575 76.0332C12.5682 75.9062 12.6252 75.7231 12.6284 75.4839V75.1445H12.9971ZM12.9971 77.9521V78.2915C13.0003 78.5047 13.0565 78.6724 13.1655 78.7944C13.2746 78.9165 13.4219 78.9775 13.6074 78.9775C14.0241 78.9775 14.2324 78.77 14.2324 78.355C14.2324 78.1597 14.1763 78.0034 14.064 77.8862C13.9533 77.7707 13.806 77.7129 13.6221 77.7129V77.2612C13.9036 77.2612 14.1372 77.3638 14.3228 77.5688C14.5099 77.7756 14.6035 78.0376 14.6035 78.355C14.6035 78.6903 14.5148 78.9531 14.3374 79.1436C14.16 79.334 13.9134 79.4292 13.5977 79.4292C13.443 79.4292 13.2933 79.3787 13.1484 79.2778C13.0036 79.1785 12.8953 79.0426 12.8237 78.8701C12.7619 79.0654 12.6593 79.216 12.5161 79.3218C12.3729 79.4292 12.1979 79.4829 11.9912 79.4829C11.6722 79.4829 11.4191 79.3787 11.2319 79.1704C11.0448 78.9621 10.9512 78.6911 10.9512 78.3574C10.9512 78.0238 11.0415 77.752 11.2222 77.542C11.4028 77.3337 11.6413 77.2295 11.9375 77.2295V77.6836C11.7503 77.6836 11.6006 77.7446 11.4883 77.8667C11.376 77.9888 11.3198 78.1523 11.3198 78.3574C11.3198 78.5755 11.3768 78.7424 11.4907 78.8579C11.6047 78.9735 11.7682 79.0312 11.9814 79.0312C12.1882 79.0312 12.3468 78.9678 12.4575 78.8408C12.5682 78.7139 12.6252 78.5308 12.6284 78.2915V77.9521H12.9971Z" fill="white"/>
<path d="M11 86.8169V84.4878H11.3247L12.6919 85.7183C12.8986 85.9006 13.0662 86.0259 13.1948 86.0942C13.325 86.1642 13.4593 86.1992 13.5977 86.1992C13.7832 86.1992 13.9354 86.1431 14.0542 86.0308C14.173 85.9185 14.2324 85.7687 14.2324 85.5815C14.2324 85.3569 14.1681 85.182 14.0396 85.0566C13.9126 84.9329 13.7352 84.8711 13.5073 84.8711V84.4194C13.8345 84.4194 14.099 84.5244 14.3008 84.7344C14.5026 84.946 14.6035 85.2284 14.6035 85.5815C14.6035 85.9119 14.5164 86.1732 14.3423 86.3652C14.1698 86.5573 13.9395 86.6533 13.6514 86.6533C13.3014 86.6533 12.8848 86.4303 12.4014 85.9844L11.3687 85.0322V86.8169H11ZM12.7822 87.5029L14.5547 87.6836V89.5049H14.1372V88.0669L13.168 87.9595C13.2705 88.1336 13.3218 88.3314 13.3218 88.5527C13.3218 88.8766 13.2144 89.1338 12.9995 89.3242C12.7863 89.5146 12.4974 89.6099 12.1328 89.6099C11.7666 89.6099 11.4777 89.5106 11.2661 89.312C11.0562 89.1151 10.9512 88.8392 10.9512 88.4844C10.9512 88.1702 11.0382 87.9139 11.2124 87.7153C11.3866 87.5168 11.6274 87.4036 11.9351 87.376V87.8032C11.7316 87.8309 11.5778 87.9033 11.4736 88.0205C11.3711 88.1377 11.3198 88.2923 11.3198 88.4844C11.3198 88.6943 11.3914 88.8587 11.5347 88.9775C11.6779 89.098 11.8757 89.1582 12.1279 89.1582C12.3656 89.1582 12.556 89.0931 12.6992 88.9629C12.8441 88.8343 12.9165 88.6626 12.9165 88.4478C12.9165 88.2508 12.8734 88.0962 12.7871 87.9839L12.6895 87.8643L12.7822 87.5029Z" fill="white"/>
<path d="M11 96.8169V94.4878H11.3247L12.6919 95.7183C12.8986 95.9006 13.0662 96.0259 13.1948 96.0942C13.325 96.1642 13.4593 96.1992 13.5977 96.1992C13.7832 96.1992 13.9354 96.1431 14.0542 96.0308C14.173 95.9185 14.2324 95.7687 14.2324 95.5815C14.2324 95.3569 14.1681 95.182 14.0396 95.0566C13.9126 94.9329 13.7352 94.8711 13.5073 94.8711V94.4194C13.8345 94.4194 14.099 94.5244 14.3008 94.7344C14.5026 94.946 14.6035 95.2284 14.6035 95.5815C14.6035 95.9119 14.5164 96.1732 14.3423 96.3652C14.1698 96.5573 13.9395 96.6533 13.6514 96.6533C13.3014 96.6533 12.8848 96.4303 12.4014 95.9844L11.3687 95.0322V96.8169H11ZM14.5571 99.0679H14.1738V98.9849C14.1673 98.6333 14.0632 98.3534 13.8613 98.145C13.6595 97.9367 13.3755 97.8162 13.0093 97.7837C13.2241 97.9709 13.3315 98.2264 13.3315 98.5503C13.3315 98.8595 13.2225 99.1061 13.0044 99.29C12.7863 99.4756 12.5047 99.5684 12.1597 99.5684C11.7935 99.5684 11.5005 99.4683 11.2808 99.2681C11.061 99.0695 10.9512 98.8026 10.9512 98.4673C10.9512 98.1271 11.0814 97.8512 11.3418 97.6396C11.6038 97.4281 11.9408 97.3223 12.3525 97.3223H12.5259C13.1802 97.3223 13.6799 97.4614 14.0249 97.7397C14.3716 98.0197 14.549 98.4355 14.5571 98.9873V99.0679ZM12.9556 98.4746C12.9556 98.32 12.9092 98.1776 12.8164 98.0474C12.7236 97.9172 12.6073 97.8268 12.4673 97.7764H12.3013C12.0083 97.7764 11.7723 97.8423 11.5933 97.9741C11.4142 98.106 11.3247 98.2703 11.3247 98.4673C11.3247 98.6707 11.3996 98.8302 11.5493 98.9458C11.6991 99.063 11.8952 99.1216 12.1377 99.1216C12.3818 99.1216 12.5788 99.0622 12.7285 98.9434C12.8799 98.8262 12.9556 98.6699 12.9556 98.4746Z" fill="white"/>
<path d="M11 106.817V104.488H11.3247L12.6919 105.718C12.8986 105.901 13.0662 106.026 13.1948 106.094C13.325 106.164 13.4593 106.199 13.5977 106.199C13.7832 106.199 13.9354 106.143 14.0542 106.031C14.173 105.918 14.2324 105.769 14.2324 105.582C14.2324 105.357 14.1681 105.182 14.0396 105.057C13.9126 104.933 13.7352 104.871 13.5073 104.871V104.419C13.8345 104.419 14.099 104.524 14.3008 104.734C14.5026 104.946 14.6035 105.228 14.6035 105.582C14.6035 105.912 14.5164 106.173 14.3423 106.365C14.1698 106.557 13.9395 106.653 13.6514 106.653C13.3014 106.653 12.8848 106.43 12.4014 105.984L11.3687 105.032V106.817H11ZM14.3008 109.59L11 108.118V107.645L14.1836 109.112V107.188H14.5547V109.59H14.3008Z" fill="white"/>
<path d="M11 115.972V115.518H14.0103L13.6758 114.607H14.0859L14.5718 115.901V115.972H11ZM12.1938 119.202V119.695H11.8252V119.202H11V118.748H11.8252V117.129H12.0913L14.5547 118.721V119.202H12.1938ZM12.1938 117.642V118.748H13.937L13.8394 118.694L12.1938 117.642Z" fill="white"/>
<path d="M11 125.972V125.518H14.0103L13.6758 124.607H14.0859L14.5718 125.901V125.972H11ZM11 129.625V127.295H11.3247L12.6919 128.526C12.8986 128.708 13.0662 128.833 13.1948 128.902C13.325 128.972 13.4593 129.007 13.5977 129.007C13.7832 129.007 13.9354 128.951 14.0542 128.838C14.173 128.726 14.2324 128.576 14.2324 128.389C14.2324 128.165 14.1681 127.99 14.0396 127.864C13.9126 127.741 13.7352 127.679 13.5073 127.679V127.227C13.8345 127.227 14.099 127.332 14.3008 127.542C14.5026 127.754 14.6035 128.036 14.6035 128.389C14.6035 128.72 14.5164 128.981 14.3423 129.173C14.1698 129.365 13.9395 129.461 13.6514 129.461C13.3014 129.461 12.8848 129.238 12.4014 128.792L11.3687 127.84V129.625H11Z" fill="white"/>
<path d="M11.4663 135.41C11.2938 135.29 11.1644 135.121 11.0781 134.905C10.9935 134.69 10.9512 134.439 10.9512 134.153C10.9512 133.863 11.0187 133.606 11.1538 133.381C11.2905 133.157 11.4842 132.983 11.7349 132.859C11.9855 132.737 12.276 132.674 12.6064 132.671H12.9165C13.452 132.671 13.867 132.795 14.1616 133.044C14.4562 133.295 14.6035 133.647 14.6035 134.099C14.6035 134.47 14.5083 134.769 14.3179 134.995C14.1291 135.221 13.8605 135.36 13.5122 135.41V134.941C13.9826 134.854 14.2178 134.574 14.2178 134.102C14.2178 133.787 14.1071 133.549 13.8857 133.386C13.666 133.225 13.347 133.144 12.9287 133.142H12.6382C12.2394 133.142 11.922 133.233 11.686 133.416C11.4517 133.598 11.3345 133.844 11.3345 134.155C11.3345 134.331 11.354 134.485 11.3931 134.617C11.4321 134.749 11.498 134.858 11.5908 134.944H12.3892V134.121H12.77V135.41H11.4663ZM11 138.926V138.455L13.7393 136.665H11V136.194H14.5547V136.665L11.8032 138.459H14.5547V138.926H11ZM11 139.758H14.5547V140.762C14.5547 141.071 14.4863 141.344 14.3496 141.582C14.2129 141.82 14.0184 142.003 13.7661 142.131C13.5138 142.262 13.2241 142.327 12.897 142.329H12.6699C12.3346 142.329 12.0409 142.264 11.7886 142.134C11.5363 142.005 11.3426 141.82 11.2075 141.58C11.0724 141.34 11.0033 141.061 11 140.742V139.758ZM14.1689 140.227H11.3833V140.72C11.3833 141.082 11.4956 141.362 11.7202 141.562C11.9448 141.764 12.2646 141.865 12.6797 141.865H12.8872C13.2909 141.865 13.6042 141.77 13.8271 141.58C14.0518 141.391 14.1657 141.122 14.1689 140.774V140.227Z" fill="white"/>
<path d="M11 145.972V145.518H14.0103L13.6758 144.607H14.0859L14.5718 145.901V145.972H11ZM12.9971 147.952V148.292C13.0003 148.505 13.0565 148.672 13.1655 148.794C13.2746 148.917 13.4219 148.978 13.6074 148.978C14.0241 148.978 14.2324 148.77 14.2324 148.355C14.2324 148.16 14.1763 148.003 14.064 147.886C13.9533 147.771 13.806 147.713 13.6221 147.713V147.261C13.9036 147.261 14.1372 147.364 14.3228 147.569C14.5099 147.776 14.6035 148.038 14.6035 148.355C14.6035 148.69 14.5148 148.953 14.3374 149.144C14.16 149.334 13.9134 149.429 13.5977 149.429C13.443 149.429 13.2933 149.379 13.1484 149.278C13.0036 149.179 12.8953 149.043 12.8237 148.87C12.7619 149.065 12.6593 149.216 12.5161 149.322C12.3729 149.429 12.1979 149.483 11.9912 149.483C11.6722 149.483 11.4191 149.379 11.2319 149.17C11.0448 148.962 10.9512 148.691 10.9512 148.357C10.9512 148.024 11.0415 147.752 11.2222 147.542C11.4028 147.334 11.6413 147.229 11.9375 147.229V147.684C11.7503 147.684 11.6006 147.745 11.4883 147.867C11.376 147.989 11.3198 148.152 11.3198 148.357C11.3198 148.576 11.3768 148.742 11.4907 148.858C11.6047 148.973 11.7682 149.031 11.9814 149.031C12.1882 149.031 12.3468 148.968 12.4575 148.841C12.5682 148.714 12.6252 148.531 12.6284 148.292V147.952H12.9971Z" fill="white"/>
<path d="M11 154.868H14.5547V155.872C14.5547 156.181 14.4863 156.454 14.3496 156.692C14.2129 156.93 14.0184 157.113 13.7661 157.241C13.5138 157.371 13.2241 157.437 12.897 157.439H12.6699C12.3346 157.439 12.0409 157.374 11.7886 157.244C11.5363 157.115 11.3426 156.93 11.2075 156.689C11.0724 156.45 11.0033 156.171 11 155.852V154.868ZM14.1689 155.337H11.3833V155.83C11.3833 156.191 11.4956 156.472 11.7202 156.672C11.9448 156.874 12.2646 156.975 12.6797 156.975H12.8872C13.2909 156.975 13.6042 156.88 13.8271 156.689C14.0518 156.501 14.1657 156.232 14.1689 155.884V155.337ZM11 160.361V158.032H11.3247L12.6919 159.263C12.8986 159.445 13.0662 159.57 13.1948 159.639C13.325 159.709 13.4593 159.744 13.5977 159.744C13.7832 159.744 13.9354 159.688 14.0542 159.575C14.173 159.463 14.2324 159.313 14.2324 159.126C14.2324 158.901 14.1681 158.726 14.0396 158.601C13.9126 158.477 13.7352 158.416 13.5073 158.416V157.964C13.8345 157.964 14.099 158.069 14.3008 158.279C14.5026 158.49 14.6035 158.773 14.6035 159.126C14.6035 159.456 14.5164 159.718 14.3423 159.91C14.1698 160.102 13.9395 160.198 13.6514 160.198C13.3014 160.198 12.8848 159.975 12.4014 159.529L11.3687 158.577V160.361H11Z" fill="white"/>
<path d="M11 164.868H14.5547V165.872C14.5547 166.181 14.4863 166.454 14.3496 166.692C14.2129 166.93 14.0184 167.113 13.7661 167.241C13.5138 167.371 13.2241 167.437 12.897 167.439H12.6699C12.3346 167.439 12.0409 167.374 11.7886 167.244C11.5363 167.115 11.3426 166.93 11.2075 166.689C11.0724 166.45 11.0033 166.171 11 165.852V164.868ZM14.1689 165.337H11.3833V165.83C11.3833 166.191 11.4956 166.472 11.7202 166.672C11.9448 166.874 12.2646 166.975 12.6797 166.975H12.8872C13.2909 166.975 13.6042 166.88 13.8271 166.689C14.0518 166.501 14.1657 166.232 14.1689 165.884V165.337ZM12.9971 168.689V169.028C13.0003 169.242 13.0565 169.409 13.1655 169.531C13.2746 169.653 13.4219 169.714 13.6074 169.714C14.0241 169.714 14.2324 169.507 14.2324 169.092C14.2324 168.896 14.1763 168.74 14.064 168.623C13.9533 168.507 13.806 168.45 13.6221 168.45V167.998C13.9036 167.998 14.1372 168.101 14.3228 168.306C14.5099 168.512 14.6035 168.774 14.6035 169.092C14.6035 169.427 14.5148 169.69 14.3374 169.88C14.16 170.071 13.9134 170.166 13.5977 170.166C13.443 170.166 13.2933 170.116 13.1484 170.015C13.0036 169.915 12.8953 169.779 12.8237 169.607C12.7619 169.802 12.6593 169.953 12.5161 170.059C12.3729 170.166 12.1979 170.22 11.9912 170.22C11.6722 170.22 11.4191 170.116 11.2319 169.907C11.0448 169.699 10.9512 169.428 10.9512 169.094C10.9512 168.761 11.0415 168.489 11.2222 168.279C11.4028 168.07 11.6413 167.966 11.9375 167.966V168.42C11.7503 168.42 11.6006 168.481 11.4883 168.604C11.376 168.726 11.3198 168.889 11.3198 169.094C11.3198 169.312 11.3768 169.479 11.4907 169.595C11.6047 169.71 11.7682 169.768 11.9814 169.768C12.1882 169.768 12.3468 169.705 12.4575 169.578C12.5682 169.451 12.6252 169.268 12.6284 169.028V168.689H12.9971Z" fill="white"/>
<path d="M12.1279 175.076C11.752 175.032 11.4614 174.893 11.2563 174.658C11.0529 174.425 10.9512 174.115 10.9512 173.728C10.9512 173.308 11.1017 172.971 11.4028 172.717C11.7039 172.465 12.1068 172.339 12.6113 172.339H12.9531C13.2835 172.339 13.5741 172.397 13.8247 172.515C14.0754 172.633 14.2674 172.801 14.4009 173.018C14.536 173.234 14.6035 173.485 14.6035 173.77C14.6035 174.147 14.4977 174.45 14.2861 174.678C14.0762 174.906 13.7848 175.038 13.4121 175.076V174.604C13.6953 174.564 13.9004 174.475 14.0273 174.338C14.1543 174.203 14.2178 174.014 14.2178 173.77C14.2178 173.47 14.1071 173.235 13.8857 173.064C13.6644 172.895 13.3494 172.81 12.9409 172.81H12.5967C12.2109 172.81 11.9041 172.891 11.6763 173.052C11.4484 173.213 11.3345 173.438 11.3345 173.728C11.3345 173.988 11.3931 174.188 11.5103 174.326C11.6291 174.466 11.835 174.559 12.1279 174.604V175.076ZM14.5547 176.323L11.6543 177.485L14.5547 178.647V179.255H11V178.787H12.3843L13.8784 178.831L11 177.664V177.305L13.8711 176.14L12.3843 176.187H11V175.718H14.5547V176.323ZM11 180.083H14.5547V181.086C14.5547 181.396 14.4863 181.669 14.3496 181.907C14.2129 182.144 14.0184 182.327 13.7661 182.456C13.5138 182.586 13.2241 182.652 12.897 182.654H12.6699C12.3346 182.654 12.0409 182.589 11.7886 182.458C11.5363 182.33 11.3426 182.145 11.2075 181.904C11.0724 181.665 11.0033 181.386 11 181.067V180.083ZM14.1689 180.552H11.3833V181.045C11.3833 181.406 11.4956 181.687 11.7202 181.887C11.9448 182.089 12.2646 182.19 12.6797 182.19H12.8872C13.2909 182.19 13.6042 182.095 13.8271 181.904C14.0518 181.715 14.1657 181.447 14.1689 181.099V180.552Z" fill="white"/>
<path d="M12.7822 184.507L14.5547 184.688V186.509H14.1372V185.071L13.168 184.964C13.2705 185.138 13.3218 185.336 13.3218 185.557C13.3218 185.881 13.2144 186.138 12.9995 186.329C12.7863 186.519 12.4974 186.614 12.1328 186.614C11.7666 186.614 11.4777 186.515 11.2661 186.316C11.0562 186.119 10.9512 185.844 10.9512 185.489C10.9512 185.175 11.0382 184.918 11.2124 184.72C11.3866 184.521 11.6274 184.408 11.9351 184.38V184.808C11.7316 184.835 11.5778 184.908 11.4736 185.025C11.3711 185.142 11.3198 185.297 11.3198 185.489C11.3198 185.699 11.3914 185.863 11.5347 185.982C11.6779 186.102 11.8757 186.163 12.1279 186.163C12.3656 186.163 12.556 186.097 12.6992 185.967C12.8441 185.839 12.9165 185.667 12.9165 185.452C12.9165 185.255 12.8734 185.101 12.7871 184.988L12.6895 184.869L12.7822 184.507ZM11.6226 188.401L14.5547 189.417V189.93L11 188.611V188.196L14.5547 186.88V187.391L11.6226 188.401Z" fill="white"/>
<path d="M12.9971 65.1445V65.4839C13.0003 65.6971 13.0565 65.8647 13.1655 65.9868C13.2746 66.1089 13.4219 66.1699 13.6074 66.1699C14.0241 66.1699 14.2324 65.9624 14.2324 65.5474C14.2324 65.3521 14.1763 65.1958 14.064 65.0786C13.9533 64.9631 13.806 64.9053 13.6221 64.9053V64.4536C13.9036 64.4536 14.1372 64.5562 14.3228 64.7612C14.5099 64.9679 14.6035 65.23 14.6035 65.5474C14.6035 65.8826 14.5148 66.1455 14.3374 66.3359C14.16 66.5264 13.9134 66.6216 13.5977 66.6216C13.443 66.6216 13.2933 66.5711 13.1484 66.4702C13.0036 66.3709 12.8953 66.235 12.8237 66.0625C12.7619 66.2578 12.6593 66.4084 12.5161 66.5142C12.3729 66.6216 12.1979 66.6753 11.9912 66.6753C11.6722 66.6753 11.4191 66.5711 11.2319 66.3628C11.0448 66.1545 10.9512 65.8835 10.9512 65.5498C10.9512 65.2161 11.0415 64.9443 11.2222 64.7344C11.4028 64.526 11.6413 64.4219 11.9375 64.4219V64.876C11.7503 64.876 11.6006 64.937 11.4883 65.0591C11.376 65.1812 11.3198 65.3447 11.3198 65.5498C11.3198 65.7679 11.3768 65.9347 11.4907 66.0503C11.6047 66.1659 11.7682 66.2236 11.9814 66.2236C12.1882 66.2236 12.3468 66.1602 12.4575 66.0332C12.5682 65.9062 12.6252 65.7231 12.6284 65.4839V65.1445H12.9971ZM11 69.6245V67.2954H11.3247L12.6919 68.5259C12.8986 68.7082 13.0662 68.8335 13.1948 68.9019C13.325 68.9718 13.4593 69.0068 13.5977 69.0068C13.7832 69.0068 13.9354 68.9507 14.0542 68.8384C14.173 68.7261 14.2324 68.5763 14.2324 68.3892C14.2324 68.1646 14.1681 67.9896 14.0396 67.8643C13.9126 67.7406 13.7352 67.6787 13.5073 67.6787V67.2271C13.8345 67.2271 14.099 67.332 14.3008 67.542C14.5026 67.7536 14.6035 68.036 14.6035 68.3892C14.6035 68.7196 14.5164 68.9808 14.3423 69.1729C14.1698 69.3649 13.9395 69.4609 13.6514 69.4609C13.3014 69.4609 12.8848 69.238 12.4014 68.792L11.3687 67.8398V69.6245H11Z" fill="white"/>
<path d="M108.872 188.514C109.248 188.558 109.539 188.697 109.744 188.931C109.947 189.164 110.049 189.474 110.049 189.861C110.049 190.281 109.898 190.618 109.597 190.872C109.296 191.124 108.893 191.25 108.389 191.25H108.047C107.716 191.25 107.426 191.192 107.175 191.075C106.925 190.956 106.733 190.788 106.599 190.572C106.464 190.355 106.396 190.105 106.396 189.82C106.396 189.442 106.502 189.139 106.714 188.912C106.924 188.684 107.215 188.551 107.588 188.514V188.985C107.305 189.026 107.1 189.114 106.973 189.251C106.846 189.386 106.782 189.576 106.782 189.82C106.782 190.119 106.893 190.354 107.114 190.525C107.336 190.695 107.651 190.779 108.059 190.779H108.403C108.789 190.779 109.096 190.699 109.324 190.538C109.552 190.376 109.666 190.151 109.666 189.861C109.666 189.601 109.607 189.402 109.49 189.263C109.371 189.123 109.165 189.03 108.872 188.985V188.514ZM109.617 187.4V185.716H110V187.872H106.445V187.4H109.617ZM108.347 184.278L108.799 184.712H110V185.181H106.445V184.712H108.203L106.445 183.133V182.566L108.015 183.965L110 182.457V183.018L108.347 184.278Z" fill="white"/>
<path d="M110 178.132H106.445V177.128C106.445 176.819 106.514 176.546 106.65 176.308C106.787 176.07 106.982 175.887 107.234 175.759C107.486 175.629 107.776 175.563 108.103 175.561H108.33C108.665 175.561 108.959 175.626 109.211 175.756C109.464 175.885 109.657 176.07 109.792 176.311C109.928 176.55 109.997 176.829 110 177.148V178.132ZM106.831 177.663H109.617V177.17C109.617 176.809 109.504 176.528 109.28 176.328C109.055 176.126 108.735 176.025 108.32 176.025H108.113C107.709 176.025 107.396 176.12 107.173 176.311C106.948 176.499 106.834 176.768 106.831 177.116V177.663ZM108.484 172.739C109.013 172.739 109.406 172.829 109.663 173.01C109.92 173.19 110.049 173.473 110.049 173.857C110.049 174.236 109.924 174.517 109.673 174.699C109.421 174.882 109.045 174.976 108.545 174.982H107.942C107.419 174.982 107.031 174.892 106.777 174.711C106.523 174.531 106.396 174.248 106.396 173.862C106.396 173.479 106.519 173.198 106.765 173.017C107.009 172.836 107.387 172.744 107.898 172.739H108.484ZM107.866 173.19C107.484 173.19 107.205 173.244 107.031 173.352C106.855 173.459 106.768 173.629 106.768 173.862C106.768 174.093 106.855 174.261 107.029 174.367C107.203 174.473 107.471 174.528 107.832 174.531H108.555C108.939 174.531 109.223 174.475 109.407 174.365C109.589 174.252 109.68 174.083 109.68 173.857C109.68 173.634 109.594 173.469 109.421 173.361C109.249 173.252 108.977 173.195 108.606 173.19H107.866Z" fill="white"/>
<path d="M110 169.132H106.445V168.128C106.445 167.819 106.514 167.546 106.65 167.308C106.787 167.07 106.982 166.887 107.234 166.759C107.486 166.629 107.776 166.563 108.103 166.561H108.33C108.665 166.561 108.959 166.626 109.211 166.756C109.464 166.885 109.657 167.07 109.792 167.311C109.928 167.55 109.997 167.829 110 168.148V169.132ZM106.831 168.663H109.617V168.17C109.617 167.809 109.504 167.528 109.28 167.328C109.055 167.126 108.735 167.025 108.32 167.025H108.113C107.709 167.025 107.396 167.12 107.173 167.311C106.948 167.499 106.834 167.768 106.831 168.116V168.663ZM110 164.483V164.938H106.99L107.324 165.848H106.914L106.428 164.554V164.483H110Z" fill="white"/>
<path d="M110 158.028V158.482H106.99L107.324 159.393H106.914L106.428 158.099V158.028H110ZM108.218 156.497L106.445 156.316V154.495H106.863V155.933L107.832 156.041C107.729 155.866 107.678 155.669 107.678 155.447C107.678 155.123 107.786 154.866 108 154.676C108.214 154.485 108.503 154.39 108.867 154.39C109.233 154.39 109.522 154.489 109.734 154.688C109.944 154.885 110.049 155.161 110.049 155.516C110.049 155.83 109.962 156.086 109.788 156.285C109.613 156.483 109.373 156.596 109.065 156.624V156.197C109.268 156.169 109.422 156.097 109.526 155.979C109.629 155.862 109.68 155.708 109.68 155.516C109.68 155.306 109.609 155.141 109.465 155.022C109.322 154.902 109.124 154.842 108.872 154.842C108.634 154.842 108.444 154.907 108.301 155.037C108.156 155.166 108.083 155.337 108.083 155.552C108.083 155.749 108.127 155.904 108.213 156.016L108.311 156.136L108.218 156.497Z" fill="white"/>
<path d="M110 144.279V146.608H109.675L108.308 145.378C108.101 145.196 107.934 145.07 107.805 145.002C107.675 144.932 107.541 144.897 107.402 144.897C107.217 144.897 107.065 144.953 106.946 145.065C106.827 145.178 106.768 145.327 106.768 145.515C106.768 145.739 106.832 145.914 106.96 146.04C107.087 146.163 107.265 146.225 107.493 146.225V146.677C107.166 146.677 106.901 146.572 106.699 146.362C106.497 146.15 106.396 145.868 106.396 145.515C106.396 145.184 106.484 144.923 106.658 144.731C106.83 144.539 107.061 144.443 107.349 144.443C107.699 144.443 108.115 144.666 108.599 145.112L109.631 146.064V144.279H110Z" fill="white"/>
<path d="M108.484 134.379C109.013 134.379 109.406 134.47 109.663 134.65C109.92 134.831 110.049 135.113 110.049 135.498C110.049 135.877 109.924 136.158 109.673 136.34C109.421 136.522 109.045 136.617 108.545 136.623H107.942C107.419 136.623 107.031 136.533 106.777 136.352C106.523 136.171 106.396 135.888 106.396 135.502C106.396 135.12 106.519 134.838 106.765 134.658C107.009 134.477 107.387 134.384 107.898 134.379H108.484ZM107.866 134.831C107.484 134.831 107.205 134.885 107.031 134.992C106.855 135.1 106.768 135.27 106.768 135.502C106.768 135.734 106.855 135.902 107.029 136.008C107.203 136.114 107.471 136.168 107.832 136.171H108.555C108.939 136.171 109.223 136.116 109.407 136.005C109.589 135.893 109.68 135.724 109.68 135.498C109.68 135.275 109.594 135.109 109.421 135.002C109.249 134.893 108.977 134.836 108.606 134.831H107.866Z" fill="white"/>
<path d="M110 117.028V117.482H106.99L107.324 118.393H106.914L106.428 117.099V117.028H110ZM106.443 113.932H106.826V114.015C106.833 114.367 106.937 114.647 107.139 114.855C107.34 115.063 107.625 115.184 107.991 115.216C107.776 115.029 107.668 114.774 107.668 114.45C107.668 114.14 107.778 113.894 107.996 113.71C108.214 113.524 108.495 113.432 108.84 113.432C109.207 113.432 109.5 113.532 109.719 113.732C109.939 113.931 110.049 114.197 110.049 114.533C110.049 114.873 109.919 115.149 109.658 115.36C109.396 115.572 109.059 115.678 108.647 115.678H108.474C107.82 115.678 107.32 115.539 106.975 115.26C106.628 114.98 106.451 114.564 106.443 114.013V113.932ZM108.044 114.525C108.044 114.68 108.091 114.822 108.184 114.953C108.276 115.083 108.393 115.173 108.533 115.224H108.699C108.992 115.224 109.228 115.158 109.407 115.026C109.586 114.894 109.675 114.73 109.675 114.533C109.675 114.329 109.6 114.17 109.451 114.054C109.301 113.937 109.105 113.878 108.862 113.878C108.618 113.878 108.421 113.938 108.271 114.057C108.12 114.174 108.044 114.33 108.044 114.525Z" fill="white"/>
<path d="M110 107.028V107.482H106.99L107.324 108.393H106.914L106.428 107.099V107.028H110ZM106.699 103.41L110 104.882V105.355L106.816 103.888V105.812H106.445V103.41H106.699Z" fill="white"/>
<path d="M108.218 97.4009L106.445 97.2202V95.3989H106.863V96.8369L107.832 96.9443C107.729 96.7702 107.678 96.5724 107.678 96.3511C107.678 96.0272 107.786 95.77 108 95.5796C108.214 95.3892 108.503 95.2939 108.867 95.2939C109.233 95.2939 109.522 95.3932 109.734 95.5918C109.944 95.7887 110.049 96.0646 110.049 96.4194C110.049 96.7336 109.962 96.9899 109.788 97.1885C109.613 97.387 109.373 97.5002 109.065 97.5278V97.1006C109.268 97.0729 109.422 97.0005 109.526 96.8833C109.629 96.7661 109.68 96.6115 109.68 96.4194C109.68 96.2095 109.609 96.0451 109.465 95.9263C109.322 95.8058 109.124 95.7456 108.872 95.7456C108.634 95.7456 108.444 95.8107 108.301 95.9409C108.156 96.0695 108.083 96.2412 108.083 96.4561C108.083 96.653 108.127 96.8076 108.213 96.9199L108.311 97.0396L108.218 97.4009Z" fill="white"/>
<path d="M110 88.0278V88.4819H106.99L107.324 89.3926H106.914L106.428 88.0986V88.0278H110ZM107.373 84.5488C107.55 84.5488 107.708 84.596 107.847 84.6904C107.985 84.7832 108.093 84.9093 108.171 85.0688C108.251 84.8833 108.368 84.7368 108.521 84.6294C108.674 84.5203 108.847 84.4658 109.041 84.4658C109.348 84.4658 109.593 84.57 109.775 84.7783C109.958 84.985 110.049 85.2576 110.049 85.5962C110.049 85.938 109.958 86.2122 109.775 86.4189C109.591 86.624 109.347 86.7266 109.041 86.7266C108.848 86.7266 108.675 86.6745 108.521 86.5703C108.366 86.4645 108.249 86.3188 108.169 86.1333C108.091 86.2912 107.983 86.4157 107.844 86.5068C107.706 86.598 107.549 86.6436 107.373 86.6436C107.074 86.6436 106.836 86.5475 106.66 86.3555C106.484 86.1634 106.396 85.9103 106.396 85.5962C106.396 85.2837 106.484 85.0314 106.66 84.8394C106.836 84.6457 107.074 84.5488 107.373 84.5488ZM109.031 84.9175C108.832 84.9175 108.67 84.981 108.545 85.1079C108.42 85.2332 108.357 85.3976 108.357 85.6011C108.357 85.8045 108.419 85.9681 108.542 86.0918C108.666 86.2139 108.829 86.2749 109.031 86.2749C109.233 86.2749 109.391 86.2155 109.507 86.0967C109.622 85.9762 109.68 85.8094 109.68 85.5962C109.68 85.3846 109.622 85.2186 109.507 85.0981C109.39 84.9777 109.231 84.9175 109.031 84.9175ZM106.768 85.5962C106.768 85.7736 106.823 85.9176 106.934 86.0283C107.043 86.1374 107.192 86.1919 107.38 86.1919C107.561 86.1919 107.708 86.1382 107.82 86.0308C107.931 85.9217 107.986 85.7769 107.986 85.5962C107.986 85.4155 107.931 85.2715 107.82 85.1641C107.708 85.055 107.561 85.0005 107.38 85.0005C107.2 85.0005 107.052 85.0566 106.938 85.1689C106.825 85.2812 106.768 85.4237 106.768 85.5962Z" fill="white"/>
<path d="M110 78.0278V78.4819H106.99L107.324 79.3926H106.914L106.428 78.0986V78.0278H110ZM108.438 74.9736C108.55 75.068 108.64 75.1812 108.708 75.313C108.777 75.4432 108.811 75.5864 108.811 75.7427C108.811 75.9478 108.761 76.1268 108.66 76.2798C108.559 76.4312 108.417 76.5483 108.235 76.6313C108.051 76.7144 107.848 76.7559 107.627 76.7559C107.389 76.7559 107.175 76.7111 106.985 76.6216C106.794 76.5304 106.649 76.4019 106.548 76.2358C106.447 76.0698 106.396 75.8761 106.396 75.6548C106.396 75.3032 106.528 75.0265 106.792 74.8247C107.054 74.6213 107.412 74.5195 107.866 74.5195H107.998C108.69 74.5195 109.195 74.6562 109.514 74.9297C109.832 75.2031 109.994 75.6157 110.002 76.1675V76.2554H109.622V76.1602C109.615 75.7874 109.518 75.501 109.331 75.3008C109.142 75.1006 108.844 74.9915 108.438 74.9736ZM108.438 75.6694C108.438 75.5181 108.391 75.3789 108.298 75.252C108.206 75.1234 108.091 75.0298 107.954 74.9712H107.773C107.477 74.9712 107.236 75.0355 107.051 75.1641C106.865 75.2926 106.772 75.4554 106.772 75.6523C106.772 75.8509 106.849 76.0104 107.002 76.1309C107.153 76.2513 107.354 76.3115 107.603 76.3115C107.845 76.3115 108.045 76.2537 108.203 76.1382C108.359 76.021 108.438 75.8647 108.438 75.6694Z" fill="white"/>
<path d="M109.534 69.5898C109.706 69.7103 109.836 69.8787 109.922 70.0952C110.007 70.3101 110.049 70.5607 110.049 70.8472C110.049 71.1369 109.981 71.394 109.846 71.6187C109.709 71.8433 109.516 72.0174 109.265 72.1411C109.014 72.2632 108.724 72.3258 108.394 72.3291H108.083C107.548 72.3291 107.133 72.2046 106.838 71.9556C106.544 71.7049 106.396 71.3534 106.396 70.9009C106.396 70.5298 106.492 70.2311 106.682 70.0049C106.871 69.7786 107.139 69.6403 107.488 69.5898V70.0586C107.017 70.1465 106.782 70.4264 106.782 70.8984C106.782 71.2126 106.893 71.451 107.114 71.6138C107.334 71.7749 107.653 71.8563 108.071 71.8579H108.362C108.761 71.8579 109.078 71.7668 109.314 71.5845C109.548 71.4022 109.666 71.1556 109.666 70.8447C109.666 70.6689 109.646 70.5151 109.607 70.3833C109.568 70.2515 109.502 70.1424 109.409 70.0562H108.611V70.8789H108.23V69.5898H109.534ZM110 66.0742V66.5454L107.261 68.335H110V68.8062H106.445V68.335L109.197 66.5405H106.445V66.0742H110ZM110 65.2417H106.445V64.2383C106.445 63.929 106.514 63.6556 106.65 63.418C106.787 63.1803 106.982 62.9972 107.234 62.8687C107.486 62.7384 107.776 62.6725 108.103 62.6709H108.33C108.665 62.6709 108.959 62.736 109.211 62.8662C109.464 62.9948 109.657 63.1795 109.792 63.4204C109.928 63.6597 109.997 63.9388 110 64.2578V65.2417ZM106.831 64.7729H109.617V64.2798C109.617 63.9185 109.504 63.6377 109.28 63.4375C109.055 63.2357 108.735 63.1348 108.32 63.1348H108.113C107.709 63.1348 107.396 63.23 107.173 63.4204C106.948 63.6092 106.834 63.8778 106.831 64.2261V64.7729Z" fill="white"/>
<path d="M110 56.1831V58.5122H109.675L108.308 57.2817C108.101 57.0994 107.934 56.9741 107.805 56.9058C107.675 56.8358 107.541 56.8008 107.402 56.8008C107.217 56.8008 107.065 56.8569 106.946 56.9692C106.827 57.0815 106.768 57.2313 106.768 57.4185C106.768 57.6431 106.832 57.818 106.96 57.9434C107.087 58.0671 107.265 58.1289 107.493 58.1289V58.5806C107.166 58.5806 106.901 58.4756 106.699 58.2656C106.497 58.054 106.396 57.7716 106.396 57.4185C106.396 57.0881 106.484 56.8268 106.658 56.6348C106.83 56.4427 107.061 56.3467 107.349 56.3467C107.699 56.3467 108.115 56.5697 108.599 57.0156L109.631 57.9678V56.1831H110ZM110 54.2202V54.6743H106.99L107.324 55.585H106.914L106.428 54.291V54.2202H110Z" fill="white"/>
<path d="M108.562 46.8916V47.7266H110V48.1978H106.445V47.021C106.445 46.6206 106.536 46.313 106.719 46.0981C106.901 45.8817 107.166 45.7734 107.515 45.7734C107.736 45.7734 107.929 45.8337 108.093 45.9541C108.258 46.0729 108.381 46.2389 108.462 46.4521L109.971 45.6172H110V46.1201L108.562 46.8916ZM108.179 47.7266V47.0063C108.179 46.7736 108.118 46.5889 107.998 46.4521C107.878 46.3138 107.716 46.2446 107.515 46.2446C107.295 46.2446 107.126 46.3105 107.009 46.4424C106.892 46.5726 106.833 46.7614 106.831 47.0088V47.7266H108.179ZM107.808 43.9546L106.445 43.1025V42.5508L108.208 43.6738L110 42.5239V43.0806L108.613 43.9546L110 44.8335V45.3877L108.208 44.2354L106.445 45.3608V44.8115L107.808 43.9546Z" fill="white"/>
<path d="M106.831 35.6904V36.833H110V37.2993H106.831V38.4395H106.445V35.6904H106.831ZM107.808 34.0034L106.445 33.1514V32.5996L108.208 33.7227L110 32.5728V33.1294L108.613 34.0034L110 34.8823V35.4365L108.208 34.2842L106.445 35.4097V34.8604L107.808 34.0034Z" fill="white"/>
<path d="M110 26.1831V28.5122H109.675L108.308 27.2817C108.101 27.0994 107.934 26.9741 107.805 26.9058C107.675 26.8358 107.541 26.8008 107.402 26.8008C107.217 26.8008 107.065 26.8569 106.946 26.9692C106.827 27.0815 106.768 27.2313 106.768 27.4185C106.768 27.6431 106.832 27.818 106.96 27.9434C107.087 28.0671 107.265 28.1289 107.493 28.1289V28.5806C107.166 28.5806 106.901 28.4756 106.699 28.2656C106.497 28.054 106.396 27.7716 106.396 27.4185C106.396 27.0881 106.484 26.8268 106.658 26.6348C106.83 26.4427 107.061 26.3467 107.349 26.3467C107.699 26.3467 108.115 26.5697 108.599 27.0156L109.631 27.9678V26.1831H110ZM110 23.3755V25.7046H109.675L108.308 24.4741C108.101 24.2918 107.934 24.1665 107.805 24.0981C107.675 24.0282 107.541 23.9932 107.402 23.9932C107.217 23.9932 107.065 24.0493 106.946 24.1616C106.827 24.2739 106.768 24.4237 106.768 24.6108C106.768 24.8354 106.832 25.0104 106.96 25.1357C107.087 25.2594 107.265 25.3213 107.493 25.3213V25.7729C107.166 25.7729 106.901 25.668 106.699 25.458C106.497 25.2464 106.396 24.964 106.396 24.6108C106.396 24.2804 106.484 24.0192 106.658 23.8271C106.83 23.6351 107.061 23.5391 107.349 23.5391C107.699 23.5391 108.115 23.762 108.599 24.208L109.631 25.1602V23.3755H110Z" fill="white"/>
<path d="M110 16.1831V18.5122H109.675L108.308 17.2817C108.101 17.0994 107.934 16.9741 107.805 16.9058C107.675 16.8358 107.541 16.8008 107.402 16.8008C107.217 16.8008 107.065 16.8569 106.946 16.9692C106.827 17.0815 106.768 17.2313 106.768 17.4185C106.768 17.6431 106.832 17.818 106.96 17.9434C107.087 18.0671 107.265 18.1289 107.493 18.1289V18.5806C107.166 18.5806 106.901 18.4756 106.699 18.2656C106.497 18.054 106.396 17.7716 106.396 17.4185C106.396 17.0881 106.484 16.8268 106.658 16.6348C106.83 16.4427 107.061 16.3467 107.349 16.3467C107.699 16.3467 108.115 16.5697 108.599 17.0156L109.631 17.9678V16.1831H110ZM108.003 15.0479V14.7085C108 14.4953 107.944 14.3276 107.834 14.2056C107.725 14.0835 107.578 14.0225 107.393 14.0225C106.976 14.0225 106.768 14.23 106.768 14.645C106.768 14.8403 106.824 14.9966 106.936 15.1138C107.047 15.2293 107.194 15.2871 107.378 15.2871V15.7388C107.096 15.7388 106.863 15.6362 106.677 15.4312C106.49 15.2244 106.396 14.9624 106.396 14.645C106.396 14.3097 106.485 14.0469 106.663 13.8564C106.84 13.666 107.087 13.5708 107.402 13.5708C107.557 13.5708 107.707 13.6213 107.852 13.7222C107.996 13.8215 108.105 13.9574 108.176 14.1299C108.238 13.9346 108.341 13.784 108.484 13.6782C108.627 13.5708 108.802 13.5171 109.009 13.5171C109.328 13.5171 109.581 13.6213 109.768 13.8296C109.955 14.0379 110.049 14.3089 110.049 14.6426C110.049 14.9762 109.958 15.248 109.778 15.458C109.597 15.6663 109.359 15.7705 109.062 15.7705V15.3164C109.25 15.3164 109.399 15.2554 109.512 15.1333C109.624 15.0112 109.68 14.8477 109.68 14.6426C109.68 14.4245 109.623 14.2576 109.509 14.1421C109.395 14.0265 109.232 13.9688 109.019 13.9688C108.812 13.9688 108.653 14.0322 108.542 14.1592C108.432 14.2861 108.375 14.4692 108.372 14.7085V15.0479H108.003Z" fill="white"/>
<path d="M109.534 8.58984C109.706 8.71029 109.836 8.87874 109.922 9.09521C110.007 9.31006 110.049 9.56071 110.049 9.84717C110.049 10.1369 109.981 10.394 109.846 10.6187C109.709 10.8433 109.516 11.0174 109.265 11.1411C109.014 11.2632 108.724 11.3258 108.394 11.3291H108.083C107.548 11.3291 107.133 11.2046 106.838 10.9556C106.544 10.7049 106.396 10.3534 106.396 9.90088C106.396 9.52979 106.492 9.23112 106.682 9.00488C106.871 8.77865 107.139 8.6403 107.488 8.58984V9.05859C107.017 9.14648 106.782 9.42643 106.782 9.89844C106.782 10.2126 106.893 10.451 107.114 10.6138C107.334 10.7749 107.653 10.8563 108.071 10.8579H108.362C108.761 10.8579 109.078 10.7668 109.314 10.5845C109.548 10.4022 109.666 10.1556 109.666 9.84473C109.666 9.66895 109.646 9.51514 109.607 9.3833C109.568 9.25146 109.502 9.14242 109.409 9.05615H108.611V9.87891H108.23V8.58984H109.534ZM110 5.07422V5.54541L107.261 7.33496H110V7.80615H106.445V7.33496L109.197 5.54053H106.445V5.07422H110ZM110 4.2417H106.445V3.23828C106.445 2.92904 106.514 2.6556 106.65 2.41797C106.787 2.18034 106.982 1.99723 107.234 1.86865C107.486 1.73844 107.776 1.67253 108.103 1.6709H108.33C108.665 1.6709 108.959 1.736 109.211 1.86621C109.464 1.99479 109.657 2.17952 109.792 2.42041C109.928 2.65967 109.997 2.9388 110 3.25781V4.2417ZM106.831 3.77295H109.617V3.27979C109.617 2.91846 109.504 2.6377 109.28 2.4375C109.055 2.23568 108.735 2.13477 108.32 2.13477H108.113C107.709 2.13477 107.396 2.22998 107.173 2.42041C106.948 2.60921 106.834 2.87777 106.831 3.22607V3.77295Z" fill="white"/>
<path d="M108.806 124.702V124.208H109.175V124.702H110V125.156H109.175V126.774H108.909L106.445 125.183V124.702H108.806ZM108.806 126.262V125.156H107.063L107.161 125.209L108.806 126.262Z" fill="white"/>
<defs>
<filter id="filter0_dd_102_2" x="31.6899" y="5.51367" width="51.3125" height="14.5742" filterUnits="userSpaceOnUse" color-interpolation-filters="sRGB">
<feFlood flood-opacity="0" result="BackgroundImageFix"/>
<feColorMatrix in="SourceAlpha" type="matrix" values="0 0 0 0 0 0 0 0 0 0 0 0 0 0 0 0 0 0 127 0" result="hardAlpha"/>
<feOffset dy="4"/>
<feGaussianBlur stdDeviation="2"/>
<feComposite in2="hardAlpha" operator="out"/>
<feColorMatrix type="matrix" values="0 0 0 0 0 0 0 0 0 0 0 0 0 0 0 0 0 0 0.25 0"/>
<feBlend mode="normal" in2="BackgroundImageFix" result="effect1_dropShadow_102_2"/>
<feColorMatrix in="SourceAlpha" type="matrix" values="0 0 0 0 0 0 0 0 0 0 0 0 0 0 0 0 0 0 127 0" result="hardAlpha"/>
<feOffset dy="4"/>
<feGaussianBlur stdDeviation="2"/>
<feComposite in2="hardAlpha" operator="out"/>
<feColorMatrix type="matrix" values="0 0 0 0 0 0 0 0 0 0 0 0 0 0 0 0 0 0 0.25 0"/>
<feBlend mode="normal" in2="effect1_dropShadow_102_2" result="effect2_dropShadow_102_2"/>
<feBlend mode="normal" in="SourceGraphic" in2="effect2_dropShadow_102_2" result="shape"/>
</filter>
</defs>
</svg>
