<svg width="248" height="294" viewBox="0 0 248 294" fill="none" xmlns="http://www.w3.org/2000/svg">
<g filter="url(#filter0_d_102_7)">
<path d="M189.322 230C186.863 230.752 184.561 231.538 182.303 232.369C181.974 232.489 181.645 232.61 181.306 232.734C180.267 233.114 179.229 233.495 178.192 233.877C177.483 234.136 176.774 234.396 176.064 234.656C174.336 235.289 172.609 235.923 170.883 236.557C171.346 236.755 171.808 236.953 172.271 237.15C172.529 237.261 172.786 237.371 173.052 237.484C173.97 237.871 174.928 238.244 175.887 238.617C190.165 244.417 195.995 252.269 195.04 259.938C193.796 267.175 185.751 273.754 171.911 278.955C171.369 279.266 171.369 279.266 171.479 279.6C171.929 280.05 172.492 280.272 173.423 280.608C173.754 280.729 174.084 280.849 174.424 280.974C174.782 281.102 175.141 281.23 175.51 281.362C175.876 281.495 176.241 281.627 176.618 281.764C177.786 282.188 178.959 282.61 180.133 283.032C180.926 283.319 181.718 283.606 182.511 283.893C184.454 284.597 186.401 285.299 188.351 286C193.344 285.13 196.742 283.152 199.997 281.57C200.208 281.468 200.419 281.366 200.636 281.261C203.7 279.776 206.327 278.233 208.721 276.592C209.177 276.28 209.641 275.969 210.107 275.659C223.268 266.546 223.968 255.181 215.893 245.465C210.747 239.584 201.354 234.31 189.322 230Z" fill="#D20B0B"/>
<path d="M36.4778 230C35.936 230.168 35.3948 230.336 34.8538 230.505C34.5524 230.598 34.2509 230.692 33.9403 230.789C17.7774 235.956 8.75837 244.258 5.4238 251.797C5.36008 251.939 5.29636 252.081 5.23071 252.228C1.00346 262.18 7.7753 272.715 23.8621 280.861C24.0716 280.967 24.281 281.074 24.4968 281.184C27.9314 282.914 31.7788 284.713 36.4778 286C42.2422 283.895 48.0066 281.789 53.9457 279.62C53.1491 279.038 52.5693 278.711 51.4097 278.247C46.4563 276.222 42.276 274.065 38.9039 271.646C38.7503 271.537 38.5966 271.429 38.4383 271.318C33.1219 267.541 30.4748 263.3 30.17 259.063C30.1506 258.869 30.1312 258.674 30.1112 258.474C29.8317 253.304 33.0234 248.172 39.8743 243.646C40.0438 243.533 40.2133 243.42 40.388 243.304C44.0934 240.875 48.7609 238.763 53.9457 236.734C53.2779 236.186 52.5135 235.813 51.3507 235.392C51.0204 235.271 50.6902 235.151 50.35 235.026C49.9942 234.898 49.6383 234.77 49.2717 234.638C48.9069 234.505 48.5421 234.373 48.1662 234.236C47.0017 233.812 45.8338 233.39 44.6659 232.968C43.8753 232.681 43.0849 232.394 42.2947 232.107C40.3583 231.404 38.4191 230.702 36.4778 230Z" fill="#D20B0B"/>
<path d="M159.238 240.987C156.78 241.739 154.477 242.525 152.22 243.356C151.89 243.477 151.561 243.597 151.222 243.721C150.183 244.102 149.146 244.483 148.108 244.864C147.399 245.124 146.69 245.384 145.981 245.643C144.253 246.277 142.526 246.91 140.8 247.544C140.997 247.627 141.193 247.71 141.396 247.795C141.656 247.904 141.916 248.014 142.183 248.127C142.44 248.236 142.697 248.344 142.962 248.455C144.062 248.939 145.004 249.451 145.925 249.981C146.205 250.142 146.205 250.142 146.491 250.307C152.23 253.674 153.678 257.5 151.475 261.367C149.734 264.029 146.195 266.369 140.8 268.278C141.468 268.826 142.232 269.199 143.395 269.621C143.725 269.742 144.055 269.862 144.396 269.986C144.929 270.179 144.929 270.179 145.474 270.375C145.839 270.507 146.203 270.64 146.579 270.777C147.744 271.2 148.912 271.622 150.08 272.044C150.87 272.331 151.661 272.618 152.451 272.905C154.387 273.609 156.326 274.311 158.268 275.013C166.079 273.678 171.624 269.335 174.523 266.533C180.549 260.204 179.567 253.246 171.86 247.182C168.771 244.883 164.22 242.772 159.238 240.987Z" fill="#D20B0B"/>
<path d="M67.3609 241.166C66.8217 241.331 66.284 241.497 65.7468 241.663C65.4471 241.755 65.1475 241.847 64.8388 241.942C63.5191 242.375 62.4355 242.858 61.3563 243.37C61.0159 243.531 61.0159 243.531 60.6687 243.695C49.7898 248.947 46.2101 255.291 48.1929 261.788C48.4851 262.545 48.9088 263.285 49.4078 264.026C49.4885 264.151 49.5692 264.276 49.6523 264.404C52.2355 268.285 58.4439 272.748 67.3609 275.191C73.2854 273.027 79.21 270.863 85.314 268.634C84.3533 268.225 83.3926 267.815 82.4027 267.394C81.635 266.998 80.8987 266.606 80.1889 266.197C80.0021 266.09 79.8153 265.982 79.6229 265.872C73.5545 262.315 72.368 258.325 74.8816 254.272C76.4174 252.077 79.749 250.003 84.1465 248.42C84.8288 248.077 84.8288 248.077 84.7297 247.742C84.2615 247.289 83.6712 247.059 82.7295 246.718C82.3896 246.594 82.0496 246.47 81.6993 246.342C81.3304 246.21 80.9614 246.078 80.5812 245.942C80.0168 245.737 80.0168 245.737 79.4411 245.528C78.238 245.092 77.0301 244.657 75.8219 244.223C75.0056 243.927 74.1897 243.632 73.374 243.336C71.3735 242.611 69.3688 241.888 67.3609 241.166Z" fill="#D20B0B"/>
<path d="M112.475 250.302C112.072 250.304 111.67 250.305 111.255 250.307C105.346 250.366 101.355 251.177 97.1605 252.662C92.4648 254.492 91.5543 256.327 91.6601 258.735C91.8973 260.951 94.6584 262.488 98.9497 263.981C104.112 265.561 110.078 265.777 116.539 265.62C121.539 265.351 126.203 264.265 129.365 262.84C133.281 260.729 134.379 258.565 133.298 256.065C131.831 254.083 128.495 252.35 123.635 251.31C120.061 250.594 116.531 250.283 112.475 250.302Z" fill="#D20B0B"/>
</g>
<rect x="102" y="290" width="2" height="1" fill="#C4C4C4"/>
<rect x="53" y="56" width="121" height="193" rx="5" fill="#2E2F36"/>
<circle cx="169" cy="63" r="3" fill="#C4C4C4"/>
<circle cx="169" cy="83" r="3" fill="#C4C4C4"/>
<circle cx="169" cy="93" r="3" fill="#C4C4C4"/>
<circle cx="169" cy="73" r="3" fill="#C4C4C4"/>
<circle cx="169" cy="223" r="3" fill="#C4C4C4"/>
<circle cx="169" cy="243" r="3" fill="#C4C4C4"/>
<circle cx="169" cy="233" r="3" fill="#C4C4C4"/>
<circle cx="169" cy="103" r="3" fill="#C4C4C4"/>
<circle cx="169" cy="123" r="3" fill="#C4C4C4"/>
<circle cx="169" cy="133" r="3" fill="#C4C4C4"/>
<circle cx="169" cy="113" r="3" fill="#C4C4C4"/>
<circle cx="169" cy="143" r="3" fill="#C4C4C4"/>
<circle cx="169" cy="163" r="3" fill="#C4C4C4"/>
<circle cx="169" cy="173" r="3" fill="#C4C4C4"/>
<circle cx="169" cy="153" r="3" fill="#C4C4C4"/>
<circle cx="169" cy="183" r="3" fill="#C4C4C4"/>
<circle cx="169" cy="203" r="3" fill="#C4C4C4"/>
<circle cx="169" cy="213" r="3" fill="#C4C4C4"/>
<circle cx="169" cy="193" r="3" fill="#C4C4C4"/>
<circle cx="58" cy="63" r="3" fill="#C4C4C4"/>
<circle cx="58" cy="83" r="3" fill="#C4C4C4"/>
<circle cx="58" cy="93" r="3" fill="#C4C4C4"/>
<circle cx="58" cy="73" r="3" fill="#C4C4C4"/>
<circle cx="58" cy="223" r="3" fill="#C4C4C4"/>
<circle cx="58" cy="243" r="3" fill="#C4C4C4"/>
<circle cx="58" cy="233" r="3" fill="#C4C4C4"/>
<circle cx="58" cy="103" r="3" fill="#C4C4C4"/>
<circle cx="58" cy="123" r="3" fill="#C4C4C4"/>
<circle cx="58" cy="133" r="3" fill="#C4C4C4"/>
<circle cx="58" cy="113" r="3" fill="#C4C4C4"/>
<circle cx="58" cy="143" r="3" fill="#C4C4C4"/>
<circle cx="58" cy="163" r="3" fill="#C4C4C4"/>
<circle cx="58" cy="173" r="3" fill="#C4C4C4"/>
<circle cx="58" cy="153" r="3" fill="#C4C4C4"/>
<circle cx="58" cy="183" r="3" fill="#C4C4C4"/>
<circle cx="58" cy="203" r="3" fill="#C4C4C4"/>
<circle cx="58" cy="213" r="3" fill="#C4C4C4"/>
<circle cx="58" cy="193" r="3" fill="#C4C4C4"/>
<rect x="88" y="128" width="2" height="3" transform="rotate(-90 88 128)" fill="#C4C4C4"/>
<rect x="141" y="128" width="2" height="3" transform="rotate(-90 141 128)" fill="#C4C4C4"/>
<rect x="135" y="128" width="2" height="3" transform="rotate(-90 135 128)" fill="#C4C4C4"/>
<rect x="129" y="128" width="2" height="3" transform="rotate(-90 129 128)" fill="#C4C4C4"/>
<rect x="123" y="128" width="2" height="3" transform="rotate(-90 123 128)" fill="#C4C4C4"/>
<rect x="117" y="128" width="2" height="3" transform="rotate(-90 117 128)" fill="#C4C4C4"/>
<rect x="112" y="128" width="2" height="3" transform="rotate(-90 112 128)" fill="#C4C4C4"/>
<rect x="106" y="128" width="2" height="3" transform="rotate(-90 106 128)" fill="#C4C4C4"/>
<rect x="100" y="128" width="2" height="3" transform="rotate(-90 100 128)" fill="#C4C4C4"/>
<rect x="84.1035" y="126" width="69" height="63.7931" transform="rotate(-90 84.1035 126)" fill="#565656"/>
<rect x="82" y="125" width="3" height="2" transform="rotate(-90 82 125)" fill="#C4C4C4"/>
<rect x="82" y="120" width="3" height="2" transform="rotate(-90 82 120)" fill="#C4C4C4"/>
<rect x="82" y="115" width="3" height="2" transform="rotate(-90 82 115)" fill="#C4C4C4"/>
<rect x="82" y="110" width="3" height="2" transform="rotate(-90 82 110)" fill="#C4C4C4"/>
<rect x="82" y="105" width="3" height="2" transform="rotate(-90 82 105)" fill="#C4C4C4"/>
<rect x="82" y="100" width="3" height="2" transform="rotate(-90 82 100)" fill="#C4C4C4"/>
<rect x="82" y="95" width="3" height="2" transform="rotate(-90 82 95)" fill="#C4C4C4"/>
<rect x="82" y="90" width="3" height="2" transform="rotate(-90 82 90)" fill="#C4C4C4"/>
<rect x="82" y="85" width="3" height="2" transform="rotate(-90 82 85)" fill="#C4C4C4"/>
<rect x="82" y="80" width="3" height="2" transform="rotate(-90 82 80)" fill="#C4C4C4"/>
<rect x="82" y="75" width="3" height="2" transform="rotate(-90 82 75)" fill="#C4C4C4"/>
<rect x="82" y="70" width="3" height="2" transform="rotate(-90 82 70)" fill="#C4C4C4"/>
<rect x="82" y="65" width="3" height="2" transform="rotate(-90 82 65)" fill="#C4C4C4"/>
<rect x="82" y="60" width="3" height="2" transform="rotate(-90 82 60)" fill="#C4C4C4"/>
<rect x="148" y="125" width="3" height="2" transform="rotate(-90 148 125)" fill="#C4C4C4"/>
<rect x="148" y="120" width="3" height="2" transform="rotate(-90 148 120)" fill="#C4C4C4"/>
<rect x="148" y="115" width="3" height="2" transform="rotate(-90 148 115)" fill="#C4C4C4"/>
<rect x="148" y="110" width="3" height="2" transform="rotate(-90 148 110)" fill="#C4C4C4"/>
<rect x="148" y="105" width="3" height="2" transform="rotate(-90 148 105)" fill="#C4C4C4"/>
<rect x="148" y="100" width="3" height="2" transform="rotate(-90 148 100)" fill="#C4C4C4"/>
<rect x="148" y="95" width="3" height="2" transform="rotate(-90 148 95)" fill="#C4C4C4"/>
<rect x="148" y="90" width="3" height="2" transform="rotate(-90 148 90)" fill="#C4C4C4"/>
<rect x="148" y="85" width="3" height="2" transform="rotate(-90 148 85)" fill="#C4C4C4"/>
<rect x="148" y="80" width="3" height="2" transform="rotate(-90 148 80)" fill="#C4C4C4"/>
<rect x="148" y="75" width="3" height="2" transform="rotate(-90 148 75)" fill="#C4C4C4"/>
<rect x="148" y="70" width="3" height="2" transform="rotate(-90 148 70)" fill="#C4C4C4"/>
<rect x="148" y="65" width="3" height="2" transform="rotate(-90 148 65)" fill="#C4C4C4"/>
<rect x="148" y="60" width="3" height="2" transform="rotate(-90 148 60)" fill="#C4C4C4"/>
<rect x="94" y="128" width="2" height="3" transform="rotate(-90 94 128)" fill="#C4C4C4"/>
<g filter="url(#filter1_dd_102_7)">
<path d="M91.7573 65.0425H89.4941V67.3101H92.1309V68H88.6899V61.6016H92.0869V62.2959H89.4941V64.3525H91.7573V65.0425ZM95.1016 65.1479C94.3779 64.9399 93.8506 64.6851 93.5195 64.3833C93.1914 64.0786 93.0273 63.7036 93.0273 63.2583C93.0273 62.7544 93.228 62.3384 93.6294 62.0103C94.0337 61.6792 94.5581 61.5137 95.2026 61.5137C95.6421 61.5137 96.0332 61.5986 96.376 61.7686C96.7217 61.9385 96.9883 62.1729 97.1758 62.4717C97.3662 62.7705 97.4614 63.0972 97.4614 63.4517H96.6133C96.6133 63.0649 96.4902 62.7617 96.2441 62.542C95.998 62.3193 95.6509 62.208 95.2026 62.208C94.7866 62.208 94.4614 62.3003 94.2271 62.4849C93.9956 62.6665 93.8799 62.9199 93.8799 63.2451C93.8799 63.5059 93.9897 63.7271 94.2095 63.9087C94.4321 64.0874 94.8086 64.2515 95.3389 64.4009C95.8721 64.5503 96.2881 64.7158 96.5869 64.8975C96.8887 65.0762 97.1113 65.2856 97.2549 65.5259C97.4014 65.7661 97.4746 66.0488 97.4746 66.374C97.4746 66.8926 97.2725 67.3086 96.8682 67.6221C96.4639 67.9326 95.9233 68.0879 95.2466 68.0879C94.8071 68.0879 94.397 68.0044 94.0161 67.8374C93.6353 67.6675 93.3408 67.436 93.1328 67.1431C92.9277 66.8501 92.8252 66.5176 92.8252 66.1455H93.6733C93.6733 66.5322 93.8154 66.8384 94.0996 67.064C94.3867 67.2866 94.769 67.3979 95.2466 67.3979C95.6919 67.3979 96.0332 67.3071 96.2705 67.1255C96.5078 66.9438 96.6265 66.6963 96.6265 66.3828C96.6265 66.0693 96.5166 65.8276 96.2969 65.6577C96.0771 65.4849 95.6787 65.3149 95.1016 65.1479ZM99.4038 65.4951V68H98.5601V61.6016H100.92C101.62 61.6016 102.168 61.7803 102.563 62.1377C102.962 62.4951 103.161 62.9683 103.161 63.5571C103.161 64.1782 102.966 64.6572 102.577 64.9941C102.19 65.3281 101.635 65.4951 100.911 65.4951H99.4038ZM99.4038 64.8052H100.92C101.371 64.8052 101.717 64.6997 101.957 64.4888C102.197 64.2749 102.317 63.9673 102.317 63.5659C102.317 63.1851 102.197 62.8804 101.957 62.6519C101.717 62.4233 101.387 62.3047 100.968 62.2959H99.4038V64.8052ZM106.584 65.4116H105.082V68H104.233V61.6016H106.352C107.072 61.6016 107.626 61.7656 108.013 62.0938C108.402 62.4219 108.597 62.8994 108.597 63.5264C108.597 63.9248 108.489 64.272 108.272 64.5679C108.058 64.8638 107.759 65.085 107.375 65.2314L108.878 67.9473V68H107.973L106.584 65.4116ZM105.082 64.7217H106.378C106.797 64.7217 107.129 64.6133 107.375 64.3965C107.625 64.1797 107.749 63.8896 107.749 63.5264C107.749 63.1309 107.63 62.8276 107.393 62.6167C107.159 62.4058 106.819 62.2988 106.374 62.2959H105.082V64.7217ZM113.4 65.0425H110.627V67.3101H113.849V68H109.784V61.6016H113.805V62.2959H110.627V64.3525H113.4V65.0425ZM116.784 65.1479C116.061 64.9399 115.533 64.6851 115.202 64.3833C114.874 64.0786 114.71 63.7036 114.71 63.2583C114.71 62.7544 114.911 62.3384 115.312 62.0103C115.716 61.6792 116.241 61.5137 116.885 61.5137C117.325 61.5137 117.716 61.5986 118.059 61.7686C118.404 61.9385 118.671 62.1729 118.858 62.4717C119.049 62.7705 119.144 63.0972 119.144 63.4517H118.296C118.296 63.0649 118.173 62.7617 117.927 62.542C117.681 62.3193 117.333 62.208 116.885 62.208C116.469 62.208 116.144 62.3003 115.91 62.4849C115.678 62.6665 115.562 62.9199 115.562 63.2451C115.562 63.5059 115.672 63.7271 115.892 63.9087C116.115 64.0874 116.491 64.2515 117.021 64.4009C117.555 64.5503 117.971 64.7158 118.27 64.8975C118.571 65.0762 118.794 65.2856 118.938 65.5259C119.084 65.7661 119.157 66.0488 119.157 66.374C119.157 66.8926 118.955 67.3086 118.551 67.6221C118.146 67.9326 117.606 68.0879 116.929 68.0879C116.49 68.0879 116.08 68.0044 115.699 67.8374C115.318 67.6675 115.023 67.436 114.815 67.1431C114.61 66.8501 114.508 66.5176 114.508 66.1455H115.356C115.356 66.5322 115.498 66.8384 115.782 67.064C116.069 67.2866 116.452 67.3979 116.929 67.3979C117.375 67.3979 117.716 67.3071 117.953 67.1255C118.19 66.9438 118.309 66.6963 118.309 66.3828C118.309 66.0693 118.199 65.8276 117.979 65.6577C117.76 65.4849 117.361 65.3149 116.784 65.1479ZM122.128 65.1479C121.404 64.9399 120.877 64.6851 120.546 64.3833C120.218 64.0786 120.054 63.7036 120.054 63.2583C120.054 62.7544 120.254 62.3384 120.656 62.0103C121.06 61.6792 121.584 61.5137 122.229 61.5137C122.668 61.5137 123.06 61.5986 123.402 61.7686C123.748 61.9385 124.015 62.1729 124.202 62.4717C124.393 62.7705 124.488 63.0972 124.488 63.4517H123.64C123.64 63.0649 123.517 62.7617 123.271 62.542C123.024 62.3193 122.677 62.208 122.229 62.208C121.813 62.208 121.488 62.3003 121.253 62.4849C121.022 62.6665 120.906 62.9199 120.906 63.2451C120.906 63.5059 121.016 63.7271 121.236 63.9087C121.458 64.0874 121.835 64.2515 122.365 64.4009C122.898 64.5503 123.314 64.7158 123.613 64.8975C123.915 65.0762 124.138 65.2856 124.281 65.5259C124.428 65.7661 124.501 66.0488 124.501 66.374C124.501 66.8926 124.299 67.3086 123.895 67.6221C123.49 67.9326 122.95 68.0879 122.273 68.0879C121.833 68.0879 121.423 68.0044 121.042 67.8374C120.662 67.6675 120.367 67.436 120.159 67.1431C119.954 66.8501 119.852 66.5176 119.852 66.1455H120.7C120.7 66.5322 120.842 66.8384 121.126 67.064C121.413 67.2866 121.795 67.3979 122.273 67.3979C122.718 67.3979 123.06 67.3071 123.297 67.1255C123.534 66.9438 123.653 66.6963 123.653 66.3828C123.653 66.0693 123.543 65.8276 123.323 65.6577C123.104 65.4849 122.705 65.3149 122.128 65.1479ZM126.492 68H125.648V61.6016H126.492V68ZM131.567 65.1743H128.882V68H128.039V61.6016H132.002V62.2959H128.882V64.4844H131.567V65.1743Z" fill="#D4CEC2"/>
</g>
<path d="M91.4219 76.3569H89.8813V77.6167H91.6709V78H89.4126V74.4453H91.6465V74.8311H89.8813V75.9736H91.4219V76.3569ZM93.3018 76.4155C92.8997 76.3 92.6068 76.1584 92.4229 75.9907C92.2406 75.8215 92.1494 75.6131 92.1494 75.3657C92.1494 75.0858 92.2609 74.8547 92.4839 74.6724C92.7085 74.4884 92.9998 74.3965 93.3579 74.3965C93.6021 74.3965 93.8193 74.4437 94.0098 74.5381C94.2018 74.6325 94.3499 74.7627 94.4541 74.9287C94.5599 75.0947 94.6128 75.2762 94.6128 75.4731H94.1416C94.1416 75.2583 94.0732 75.0898 93.9365 74.9678C93.7998 74.8441 93.6069 74.7822 93.3579 74.7822C93.1268 74.7822 92.9461 74.8335 92.8159 74.936C92.6873 75.0369 92.623 75.1777 92.623 75.3584C92.623 75.5033 92.6841 75.6261 92.8062 75.7271C92.9299 75.8263 93.139 75.9175 93.4336 76.0005C93.7298 76.0835 93.9609 76.1755 94.127 76.2764C94.2946 76.3757 94.4183 76.492 94.498 76.6255C94.5794 76.759 94.6201 76.916 94.6201 77.0967C94.6201 77.3848 94.5078 77.6159 94.2832 77.79C94.0586 77.9626 93.7583 78.0488 93.3823 78.0488C93.1382 78.0488 92.9103 78.0024 92.6987 77.9097C92.4871 77.8153 92.3236 77.6867 92.208 77.5239C92.0941 77.3612 92.0371 77.1764 92.0371 76.9697H92.5083C92.5083 77.1846 92.5872 77.3547 92.7451 77.48C92.9046 77.6037 93.117 77.6655 93.3823 77.6655C93.6297 77.6655 93.8193 77.6151 93.9512 77.5142C94.083 77.4132 94.1489 77.2757 94.1489 77.1016C94.1489 76.9274 94.0879 76.7931 93.9658 76.6987C93.8438 76.6027 93.6224 76.5083 93.3018 76.4155ZM95.6919 76.6084V78H95.2231V74.4453H96.5342C96.9232 74.4453 97.2275 74.5446 97.4473 74.7432C97.6686 74.9417 97.7793 75.2046 97.7793 75.5317C97.7793 75.8768 97.6711 76.1429 97.4546 76.3301C97.2397 76.5156 96.9313 76.6084 96.5293 76.6084H95.6919ZM95.6919 76.2251H96.5342C96.7848 76.2251 96.9769 76.1665 97.1104 76.0493C97.2438 75.9305 97.3105 75.7596 97.3105 75.5366C97.3105 75.325 97.2438 75.1558 97.1104 75.0288C96.9769 74.9019 96.7938 74.8359 96.561 74.8311H95.6919V76.2251ZM98.917 76.0029H99.2563C99.4696 75.9997 99.6372 75.9435 99.7593 75.8345C99.8813 75.7254 99.9424 75.5781 99.9424 75.3926C99.9424 74.9759 99.7349 74.7676 99.3198 74.7676C99.1245 74.7676 98.9683 74.8237 98.8511 74.936C98.7355 75.0467 98.6777 75.194 98.6777 75.3779H98.2261C98.2261 75.0964 98.3286 74.8628 98.5337 74.6772C98.7404 74.4901 99.0024 74.3965 99.3198 74.3965C99.6551 74.3965 99.918 74.4852 100.108 74.6626C100.299 74.84 100.394 75.0866 100.394 75.4023C100.394 75.557 100.344 75.7067 100.243 75.8516C100.143 75.9964 100.007 76.1047 99.835 76.1763C100.03 76.2381 100.181 76.3407 100.287 76.4839C100.394 76.6271 100.448 76.8021 100.448 77.0088C100.448 77.3278 100.344 77.5809 100.135 77.7681C99.9269 77.9552 99.6559 78.0488 99.3223 78.0488C98.9886 78.0488 98.7168 77.9585 98.5068 77.7778C98.2985 77.5972 98.1943 77.3587 98.1943 77.0625H98.6484C98.6484 77.2497 98.7095 77.3994 98.8315 77.5117C98.9536 77.624 99.1172 77.6802 99.3223 77.6802C99.5404 77.6802 99.7072 77.6232 99.8228 77.5093C99.9383 77.3953 99.9961 77.2318 99.9961 77.0186C99.9961 76.8118 99.9326 76.6532 99.8057 76.5425C99.6787 76.4318 99.4956 76.3748 99.2563 76.3716H98.917V76.0029ZM103.397 78H101.068V77.6753L102.298 76.3081C102.481 76.1014 102.606 75.9338 102.674 75.8052C102.744 75.675 102.779 75.5407 102.779 75.4023C102.779 75.2168 102.723 75.0646 102.611 74.9458C102.499 74.827 102.349 74.7676 102.162 74.7676C101.937 74.7676 101.762 74.8319 101.637 74.9604C101.513 75.0874 101.451 75.2648 101.451 75.4927H101C101 75.1655 101.104 74.901 101.314 74.6992C101.526 74.4974 101.808 74.3965 102.162 74.3965C102.492 74.3965 102.753 74.4836 102.945 74.6577C103.137 74.8302 103.233 75.0605 103.233 75.3486C103.233 75.6986 103.01 76.1152 102.564 76.5986L101.612 77.6313H103.397V78ZM104.862 76.6743H103.67V76.3057H104.862V76.6743ZM106.141 76.8794L106.209 77.3481L106.31 76.9258L107.013 74.4453H107.408L108.094 76.9258L108.192 77.3555L108.268 76.877L108.819 74.4453H109.291L108.429 78H108.001L107.269 75.4097L107.213 75.1387L107.157 75.4097L106.397 78H105.97L105.111 74.4453H105.58L106.141 76.8794ZM111.117 76.562H110.282V78H109.811V74.4453H110.987C111.388 74.4453 111.695 74.5365 111.91 74.7188C112.127 74.901 112.235 75.1663 112.235 75.5146C112.235 75.736 112.175 75.9289 112.054 76.0933C111.935 76.2576 111.769 76.3805 111.556 76.4619L112.391 77.9707V78H111.888L111.117 76.562ZM110.282 76.1787H111.002C111.235 76.1787 111.419 76.1185 111.556 75.998C111.694 75.8776 111.764 75.7165 111.764 75.5146C111.764 75.2949 111.698 75.1265 111.566 75.0093C111.436 74.8921 111.247 74.8327 111 74.8311H110.282V76.1787ZM115.628 76.3374C115.628 76.6857 115.57 76.9901 115.453 77.2505C115.335 77.5093 115.169 77.707 114.955 77.8438C114.74 77.9805 114.489 78.0488 114.203 78.0488C113.923 78.0488 113.674 77.9805 113.458 77.8438C113.242 77.7054 113.073 77.5093 112.953 77.2554C112.834 76.9998 112.773 76.7044 112.77 76.3691V76.1128C112.77 75.771 112.829 75.4691 112.948 75.207C113.067 74.945 113.234 74.7448 113.451 74.6064C113.669 74.4665 113.918 74.3965 114.198 74.3965C114.483 74.3965 114.733 74.4657 114.95 74.604C115.168 74.7407 115.335 74.9401 115.453 75.2021C115.57 75.4626 115.628 75.7661 115.628 76.1128V76.3374ZM115.162 76.1079C115.162 75.6864 115.077 75.3633 114.908 75.1387C114.739 74.9124 114.502 74.7993 114.198 74.7993C113.902 74.7993 113.668 74.9124 113.497 75.1387C113.328 75.3633 113.241 75.6758 113.236 76.0762V76.3374C113.236 76.7459 113.321 77.0674 113.492 77.3018C113.665 77.5345 113.902 77.6509 114.203 77.6509C114.505 77.6509 114.74 77.541 114.906 77.3213C115.072 77.0999 115.157 76.7834 115.162 76.3716V76.1079ZM119.066 76.3374C119.066 76.6857 119.007 76.9901 118.89 77.2505C118.773 77.5093 118.607 77.707 118.392 77.8438C118.177 77.9805 117.927 78.0488 117.64 78.0488C117.36 78.0488 117.112 77.9805 116.896 77.8438C116.679 77.7054 116.511 77.5093 116.39 77.2554C116.271 76.9998 116.21 76.7044 116.207 76.3691V76.1128C116.207 75.771 116.266 75.4691 116.385 75.207C116.504 74.945 116.672 74.7448 116.888 74.6064C117.106 74.4665 117.355 74.3965 117.635 74.3965C117.92 74.3965 118.171 74.4657 118.387 74.604C118.605 74.7407 118.773 74.9401 118.89 75.2021C119.007 75.4626 119.066 75.7661 119.066 76.1128V76.3374ZM118.6 76.1079C118.6 75.6864 118.515 75.3633 118.346 75.1387C118.176 74.9124 117.94 74.7993 117.635 74.7993C117.339 74.7993 117.105 74.9124 116.935 75.1387C116.765 75.3633 116.678 75.6758 116.673 76.0762V76.3374C116.673 76.7459 116.759 77.0674 116.93 77.3018C117.102 77.5345 117.339 77.6509 117.64 77.6509C117.943 77.6509 118.177 77.541 118.343 77.3213C118.509 77.0999 118.595 76.7834 118.6 76.3716V76.1079ZM120.375 74.4453L121.537 77.3457L122.699 74.4453H123.307V78H122.838V76.6157L122.882 75.1216L121.715 78H121.356L120.191 75.1289L120.238 76.6157V78H119.769V74.4453H120.375Z" fill="#D4CEC2"/>
<rect x="122" y="182" width="12" height="23" transform="rotate(-180 122 182)" fill="black"/>
<rect x="127" y="176" width="5" height="11" transform="rotate(-180 127 176)" fill="#C6C6C6"/>
<rect x="110" y="179" width="8" height="3" transform="rotate(-180 110 179)" fill="#C4C4C4"/>
<rect x="110" y="172" width="8" height="3" transform="rotate(-180 110 172)" fill="#C4C4C4"/>
<rect x="110" y="165" width="8" height="3" transform="rotate(-180 110 165)" fill="#C4C4C4"/>
<rect x="80" y="236.129" width="16.2581" height="12" transform="rotate(-90 80 236.129)" fill="#C4C4C4"/>
<rect x="84" y="240" width="4" height="4" transform="rotate(-90 84 240)" fill="#C4C4C4"/>
<rect x="84" y="220" width="4" height="4" transform="rotate(-90 84 220)" fill="#C4C4C4"/>
<circle cx="86" cy="228" r="3" transform="rotate(-90 86 228)" fill="#565656"/>
<rect x="136" y="236.129" width="16.2581" height="12" transform="rotate(-90 136 236.129)" fill="#C4C4C4"/>
<rect x="140" y="240" width="4" height="4" transform="rotate(-90 140 240)" fill="#C4C4C4"/>
<rect x="140" y="220" width="4" height="4" transform="rotate(-90 140 220)" fill="#C4C4C4"/>
<circle cx="142" cy="228" r="3" transform="rotate(-90 142 228)" fill="#565656"/>
<rect x="99.9787" y="256" width="31" height="27.0426" transform="rotate(-90 99.9787 256)" fill="#C4C4C4"/>
<path d="M125.043 240.5C130.319 240.5 130.319 235.155 125.043 235.155V240.5Z" fill="#C4C4C4"/>
<path d="M101.957 235.155C96.6808 235.155 96.6808 240.5 101.957 240.5V235.155Z" fill="#C4C4C4"/>
<rect x="104" y="186" width="19" height="19" fill="black"/>
<rect x="123" y="201" width="1" height="1" fill="#C4C4C4"/>
<rect x="123" y="189" width="1" height="1" fill="#C4C4C4"/>
<rect x="123" y="191" width="1" height="1" fill="#C4C4C4"/>
<rect x="123" y="193" width="1" height="1" fill="#C4C4C4"/>
<rect x="123" y="195" width="1" height="1" fill="#C4C4C4"/>
<rect x="123" y="197" width="1" height="1" fill="#C4C4C4"/>
<rect x="123" y="199" width="1" height="1" fill="#C4C4C4"/>
<rect x="120" y="186" width="1" height="1" transform="rotate(-180 120 186)" fill="#C4C4C4"/>
<rect x="108" y="186" width="1" height="1" transform="rotate(-180 108 186)" fill="#C4C4C4"/>
<rect x="110" y="186" width="1" height="1" transform="rotate(-180 110 186)" fill="#C4C4C4"/>
<rect x="112" y="186" width="1" height="1" transform="rotate(-180 112 186)" fill="#C4C4C4"/>
<rect x="114" y="186" width="1" height="1" transform="rotate(-180 114 186)" fill="#C4C4C4"/>
<rect x="116" y="186" width="1" height="1" transform="rotate(-180 116 186)" fill="#C4C4C4"/>
<rect x="118" y="186" width="1" height="1" transform="rotate(-180 118 186)" fill="#C4C4C4"/>
<rect x="120" y="206" width="1" height="1" transform="rotate(-180 120 206)" fill="#C4C4C4"/>
<rect x="108" y="206" width="1" height="1" transform="rotate(-180 108 206)" fill="#C4C4C4"/>
<rect x="110" y="206" width="1" height="1" transform="rotate(-180 110 206)" fill="#C4C4C4"/>
<rect x="112" y="206" width="1" height="1" transform="rotate(-180 112 206)" fill="#C4C4C4"/>
<rect x="114" y="206" width="1" height="1" transform="rotate(-180 114 206)" fill="#C4C4C4"/>
<rect x="116" y="206" width="1" height="1" transform="rotate(-180 116 206)" fill="#C4C4C4"/>
<rect x="118" y="206" width="1" height="1" transform="rotate(-180 118 206)" fill="#C4C4C4"/>
<rect x="103" y="201" width="1" height="1" fill="#C4C4C4"/>
<rect x="103" y="189" width="1" height="1" fill="#C4C4C4"/>
<rect x="103" y="191" width="1" height="1" fill="#C4C4C4"/>
<rect x="103" y="193" width="1" height="1" fill="#C4C4C4"/>
<rect x="103" y="195" width="1" height="1" fill="#C4C4C4"/>
<rect x="103" y="197" width="1" height="1" fill="#C4C4C4"/>
<rect x="103" y="199" width="1" height="1" fill="#C4C4C4"/>
<rect x="137" y="201" width="5" height="10" transform="rotate(-90 137 201)" fill="black"/>
<rect x="138" y="196" width="3" height="2" transform="rotate(-90 138 196)" fill="#C4C4C4"/>
<rect x="144" y="196" width="3" height="2" transform="rotate(-90 144 196)" fill="#C4C4C4"/>
<rect x="141" y="204" width="3" height="2" transform="rotate(-90 141 204)" fill="#C4C4C4"/>
<rect x="147" y="168" width="5" height="10" transform="rotate(90 147 168)" fill="black"/>
<rect x="146" y="173" width="3" height="2" transform="rotate(90 146 173)" fill="#C4C4C4"/>
<rect x="140" y="173" width="3" height="2" transform="rotate(90 140 173)" fill="#C4C4C4"/>
<rect x="143" y="165" width="3" height="2" transform="rotate(90 143 165)" fill="#C4C4C4"/>
<rect x="95" y="202" width="3" height="2" transform="rotate(90 95 202)" fill="black"/>
<rect x="95" y="205" width="1" height="2" transform="rotate(90 95 205)" fill="#C4C4C4"/>
<rect x="95" y="201" width="1" height="2" transform="rotate(90 95 201)" fill="#C4C4C4"/>
<rect x="130" y="205" width="3" height="2" transform="rotate(90 130 205)" fill="black"/>
<rect x="130" y="208" width="1" height="2" transform="rotate(90 130 208)" fill="#C4C4C4"/>
<rect x="130" y="204" width="1" height="2" transform="rotate(90 130 204)" fill="#C4C4C4"/>
<rect x="133" y="184" width="3" height="2" transform="rotate(90 133 184)" fill="black"/>
<rect x="133" y="187" width="1" height="2" transform="rotate(90 133 187)" fill="#C4C4C4"/>
<rect x="133" y="183" width="1" height="2" transform="rotate(90 133 183)" fill="#C4C4C4"/>
<rect x="130" y="184" width="3" height="2" transform="rotate(90 130 184)" fill="black"/>
<rect x="130" y="187" width="1" height="2" transform="rotate(90 130 187)" fill="#C4C4C4"/>
<rect x="130" y="183" width="1" height="2" transform="rotate(90 130 183)" fill="#C4C4C4"/>
<rect x="133" y="205" width="3" height="2" transform="rotate(90 133 205)" fill="black"/>
<rect x="133" y="208" width="1" height="2" transform="rotate(90 133 208)" fill="#C4C4C4"/>
<rect x="133" y="204" width="1" height="2" transform="rotate(90 133 204)" fill="#C4C4C4"/>
<rect x="121" y="214" width="3" height="2" transform="rotate(90 121 214)" fill="black"/>
<rect x="121" y="217" width="1" height="2" transform="rotate(90 121 217)" fill="#C4C4C4"/>
<rect x="121" y="213" width="1" height="2" transform="rotate(90 121 213)" fill="#C4C4C4"/>
<rect x="115" y="214" width="3" height="2" transform="rotate(90 115 214)" fill="black"/>
<rect x="115" y="217" width="1" height="2" transform="rotate(90 115 217)" fill="#C4C4C4"/>
<rect x="115" y="213" width="1" height="2" transform="rotate(90 115 213)" fill="#C4C4C4"/>
<rect x="109" y="214" width="3" height="2" transform="rotate(90 109 214)" fill="black"/>
<rect x="109" y="217" width="1" height="2" transform="rotate(90 109 217)" fill="#C4C4C4"/>
<rect x="109" y="213" width="1" height="2" transform="rotate(90 109 213)" fill="#C4C4C4"/>
<rect x="133" y="219" width="3" height="2" transform="rotate(90 133 219)" fill="black"/>
<rect x="133" y="222" width="1" height="2" transform="rotate(90 133 222)" fill="#C4C4C4"/>
<rect x="133" y="218" width="1" height="2" transform="rotate(90 133 218)" fill="#C4C4C4"/>
<rect x="98" y="202" width="3" height="2" transform="rotate(90 98 202)" fill="black"/>
<rect x="98" y="205" width="1" height="2" transform="rotate(90 98 205)" fill="#C4C4C4"/>
<rect x="98" y="201" width="1" height="2" transform="rotate(90 98 201)" fill="#C4C4C4"/>
<rect x="94" y="198" width="3" height="2" fill="black"/>
<rect x="97" y="198" width="1" height="2" fill="#C4C4C4"/>
<rect x="93" y="198" width="1" height="2" fill="#C4C4C4"/>
<rect x="94" y="195" width="3" height="2" fill="black"/>
<rect x="97" y="195" width="1" height="2" fill="#C4C4C4"/>
<rect x="93" y="195" width="1" height="2" fill="#C4C4C4"/>
<rect x="83" y="174" width="3" height="2" fill="black"/>
<rect x="86" y="174" width="1" height="2" fill="#C4C4C4"/>
<rect x="82" y="174" width="1" height="2" fill="#C4C4C4"/>
<rect x="94" y="192" width="3" height="2" fill="black"/>
<rect x="97" y="192" width="1" height="2" fill="#C4C4C4"/>
<rect x="93" y="192" width="1" height="2" fill="#C4C4C4"/>
<rect x="94" y="189" width="3" height="2" fill="black"/>
<rect x="97" y="189" width="1" height="2" fill="#C4C4C4"/>
<rect x="93" y="189" width="1" height="2" fill="#C4C4C4"/>
<rect x="83" y="180" width="3" height="2" fill="black"/>
<rect x="86" y="180" width="1" height="2" fill="#C4C4C4"/>
<rect x="82" y="180" width="1" height="2" fill="#C4C4C4"/>
<rect x="83" y="177" width="3" height="2" fill="black"/>
<rect x="86" y="177" width="1" height="2" fill="#C4C4C4"/>
<rect x="82" y="177" width="1" height="2" fill="#C4C4C4"/>
<rect x="86" y="201" width="3" height="2" transform="rotate(90 86 201)" fill="black"/>
<rect x="86" y="204" width="1" height="2" transform="rotate(90 86 204)" fill="#C4C4C4"/>
<rect x="86" y="200" width="1" height="2" transform="rotate(90 86 200)" fill="#C4C4C4"/>
<rect x="87" y="190.8" width="5.4" height="4" transform="rotate(90 87 190.8)" fill="black"/>
<rect x="87" y="196.2" width="1.8" height="4" transform="rotate(90 87 196.2)" fill="#C4C4C4"/>
<rect x="87" y="189" width="1.8" height="4" transform="rotate(90 87 189)" fill="#C4C4C4"/>
<rect x="86" y="161.8" width="5.4" height="4" transform="rotate(90 86 161.8)" fill="black"/>
<rect x="86" y="167.2" width="1.8" height="4" transform="rotate(90 86 167.2)" fill="#C4C4C4"/>
<rect x="86" y="160" width="1.8" height="4" transform="rotate(90 86 160)" fill="#C4C4C4"/>
<rect x="94" y="161.8" width="5.4" height="4" transform="rotate(90 94 161.8)" fill="black"/>
<rect x="94" y="167.2" width="1.8" height="4" transform="rotate(90 94 167.2)" fill="#C4C4C4"/>
<rect x="94" y="160" width="1.8" height="4" transform="rotate(90 94 160)" fill="#C4C4C4"/>
<rect x="94" y="175.6" width="4.8" height="4" transform="rotate(90 94 175.6)" fill="black"/>
<rect x="94" y="180.4" width="1.6" height="4" transform="rotate(90 94 180.4)" fill="#C4C4C4"/>
<rect x="94" y="174" width="1.6" height="4" transform="rotate(90 94 174)" fill="#C4C4C4"/>
<path d="M65.9971 59.0527V59.3921C66.0003 59.6053 66.0565 59.7729 66.1655 59.895C66.2746 60.0171 66.4219 60.0781 66.6074 60.0781C67.0241 60.0781 67.2324 59.8706 67.2324 59.4556C67.2324 59.2603 67.1763 59.104 67.064 58.9868C66.9533 58.8713 66.806 58.8135 66.6221 58.8135V58.3618C66.9036 58.3618 67.1372 58.4644 67.3228 58.6694C67.5099 58.8761 67.6035 59.1382 67.6035 59.4556C67.6035 59.7909 67.5148 60.0537 67.3374 60.2441C67.16 60.4346 66.9134 60.5298 66.5977 60.5298C66.443 60.5298 66.2933 60.4793 66.1484 60.3784C66.0036 60.2791 65.8953 60.1432 65.8237 59.9707C65.7619 60.166 65.6593 60.3166 65.5161 60.4224C65.3729 60.5298 65.1979 60.5835 64.9912 60.5835C64.6722 60.5835 64.4191 60.4793 64.2319 60.271C64.0448 60.0627 63.9512 59.7917 63.9512 59.458C63.9512 59.1243 64.0415 58.8525 64.2222 58.6426C64.4028 58.4342 64.6413 58.3301 64.9375 58.3301V58.7842C64.7503 58.7842 64.6006 58.8452 64.4883 58.9673C64.376 59.0894 64.3198 59.2529 64.3198 59.458C64.3198 59.6761 64.3768 59.8429 64.4907 59.9585C64.6047 60.0741 64.7682 60.1318 64.9814 60.1318C65.1882 60.1318 65.3468 60.0684 65.4575 59.9414C65.5682 59.8145 65.6252 59.6313 65.6284 59.3921V59.0527H65.9971ZM64.6226 62.4976L67.5547 63.5132V64.0259L64 62.7075V62.2925L67.5547 60.9766V61.4868L64.6226 62.4976ZM65.9971 65.0439V65.3833C66.0003 65.5965 66.0565 65.7642 66.1655 65.8862C66.2746 66.0083 66.4219 66.0693 66.6074 66.0693C67.0241 66.0693 67.2324 65.8618 67.2324 65.4468C67.2324 65.2515 67.1763 65.0952 67.064 64.978C66.9533 64.8625 66.806 64.8047 66.6221 64.8047V64.353C66.9036 64.353 67.1372 64.4556 67.3228 64.6606C67.5099 64.8674 67.6035 65.1294 67.6035 65.4468C67.6035 65.7821 67.5148 66.0449 67.3374 66.2354C67.16 66.4258 66.9134 66.521 66.5977 66.521C66.443 66.521 66.2933 66.4705 66.1484 66.3696C66.0036 66.2703 65.8953 66.1344 65.8237 65.9619C65.7619 66.1572 65.6593 66.3078 65.5161 66.4136C65.3729 66.521 65.1979 66.5747 64.9912 66.5747C64.6722 66.5747 64.4191 66.4705 64.2319 66.2622C64.0448 66.0539 63.9512 65.7829 63.9512 65.4492C63.9512 65.1156 64.0415 64.8438 64.2222 64.6338C64.4028 64.4255 64.6413 64.3213 64.9375 64.3213V64.7754C64.7503 64.7754 64.6006 64.8364 64.4883 64.9585C64.376 65.0806 64.3198 65.2441 64.3198 65.4492C64.3198 65.6673 64.3768 65.8341 64.4907 65.9497C64.6047 66.0653 64.7682 66.123 64.9814 66.123C65.1882 66.123 65.3468 66.0596 65.4575 65.9326C65.5682 65.8057 65.6252 65.6226 65.6284 65.3833V65.0439H65.9971Z" fill="white"/>
<path d="M65.6431 72.7188V71.1782H64.3833V72.9678H64V70.7095H67.5547V72.9434H67.1689V71.1782H66.0264V72.7188H65.6431ZM64 76.2832V75.812L66.7393 74.0225H64V73.5513H67.5547V74.0225L64.8032 75.8169H67.5547V76.2832H64Z" fill="white"/>
<path d="M64.6226 80.9204L67.5547 81.936V82.4487L64 81.1304V80.7153L67.5547 79.3994V79.9097L64.6226 80.9204ZM65.3916 83.396H64V82.9272H67.5547V84.2383C67.5547 84.6273 67.4554 84.9316 67.2568 85.1514C67.0583 85.3727 66.7954 85.4834 66.4683 85.4834C66.1232 85.4834 65.8571 85.3752 65.6699 85.1587C65.4844 84.9438 65.3916 84.6354 65.3916 84.2334V83.396ZM65.7749 83.396V84.2383C65.7749 84.4889 65.8335 84.681 65.9507 84.8145C66.0695 84.9479 66.2404 85.0146 66.4634 85.0146C66.675 85.0146 66.8442 84.9479 66.9712 84.8145C67.0981 84.681 67.1641 84.4979 67.1689 84.2651V83.396H65.7749Z" fill="white"/>
<path d="M64.6226 90.7153L67.5547 91.731V92.2437L64 90.9253V90.5103L67.5547 89.1943V89.7046L64.6226 90.7153ZM64 95.4541V94.9829L66.7393 93.1934H64V92.7222H67.5547V93.1934L64.8032 94.9878H67.5547V95.4541H64Z" fill="white"/>
<path d="M65.9971 101.145V101.484C66.0003 101.697 66.0565 101.865 66.1655 101.987C66.2746 102.109 66.4219 102.17 66.6074 102.17C67.0241 102.17 67.2324 101.962 67.2324 101.547C67.2324 101.352 67.1763 101.196 67.064 101.079C66.9533 100.963 66.806 100.905 66.6221 100.905V100.454C66.9036 100.454 67.1372 100.556 67.3228 100.761C67.5099 100.968 67.6035 101.23 67.6035 101.547C67.6035 101.883 67.5148 102.146 67.3374 102.336C67.16 102.526 66.9134 102.622 66.5977 102.622C66.443 102.622 66.2933 102.571 66.1484 102.47C66.0036 102.371 65.8953 102.235 65.8237 102.062C65.7619 102.258 65.6593 102.408 65.5161 102.514C65.3729 102.622 65.1979 102.675 64.9912 102.675C64.6722 102.675 64.4191 102.571 64.2319 102.363C64.0448 102.154 63.9512 101.883 63.9512 101.55C63.9512 101.216 64.0415 100.944 64.2222 100.734C64.4028 100.526 64.6413 100.422 64.9375 100.422V100.876C64.7503 100.876 64.6006 100.937 64.4883 101.059C64.376 101.181 64.3198 101.345 64.3198 101.55C64.3198 101.768 64.3768 101.935 64.4907 102.05C64.6047 102.166 64.7682 102.224 64.9814 102.224C65.1882 102.224 65.3468 102.16 65.4575 102.033C65.5682 101.906 65.6252 101.723 65.6284 101.484V101.145H65.9971ZM65.1938 105.202V105.695H64.8252V105.202H64V104.748H64.8252V103.129H65.0913L67.5547 104.721V105.202H65.1938ZM65.1938 103.642V104.748H66.937L66.8394 104.694L65.1938 103.642Z" fill="white"/>
<path d="M65.9971 111.145V111.484C66.0003 111.697 66.0565 111.865 66.1655 111.987C66.2746 112.109 66.4219 112.17 66.6074 112.17C67.0241 112.17 67.2324 111.962 67.2324 111.547C67.2324 111.352 67.1763 111.196 67.064 111.079C66.9533 110.963 66.806 110.905 66.6221 110.905V110.454C66.9036 110.454 67.1372 110.556 67.3228 110.761C67.5099 110.968 67.6035 111.23 67.6035 111.547C67.6035 111.883 67.5148 112.146 67.3374 112.336C67.16 112.526 66.9134 112.622 66.5977 112.622C66.443 112.622 66.2933 112.571 66.1484 112.47C66.0036 112.371 65.8953 112.235 65.8237 112.062C65.7619 112.258 65.6593 112.408 65.5161 112.514C65.3729 112.622 65.1979 112.675 64.9912 112.675C64.6722 112.675 64.4191 112.571 64.2319 112.363C64.0448 112.154 63.9512 111.883 63.9512 111.55C63.9512 111.216 64.0415 110.944 64.2222 110.734C64.4028 110.526 64.6413 110.422 64.9375 110.422V110.876C64.7503 110.876 64.6006 110.937 64.4883 111.059C64.376 111.181 64.3198 111.345 64.3198 111.55C64.3198 111.768 64.3768 111.935 64.4907 112.05C64.6047 112.166 64.7682 112.224 64.9814 112.224C65.1882 112.224 65.3468 112.16 65.4575 112.033C65.5682 111.906 65.6252 111.723 65.6284 111.484V111.145H65.9971ZM65.7822 113.503L67.5547 113.684V115.505H67.1372V114.067L66.168 113.959C66.2705 114.134 66.3218 114.331 66.3218 114.553C66.3218 114.877 66.2144 115.134 65.9995 115.324C65.7863 115.515 65.4974 115.61 65.1328 115.61C64.7666 115.61 64.4777 115.511 64.2661 115.312C64.0562 115.115 63.9512 114.839 63.9512 114.484C63.9512 114.17 64.0382 113.914 64.2124 113.715C64.3866 113.517 64.6274 113.404 64.9351 113.376V113.803C64.7316 113.831 64.5778 113.903 64.4736 114.021C64.3711 114.138 64.3198 114.292 64.3198 114.484C64.3198 114.694 64.3914 114.859 64.5347 114.978C64.6779 115.098 64.8757 115.158 65.1279 115.158C65.3656 115.158 65.556 115.093 65.6992 114.963C65.8441 114.834 65.9165 114.663 65.9165 114.448C65.9165 114.251 65.8734 114.096 65.7871 113.984L65.6895 113.864L65.7822 113.503Z" fill="white"/>
<path d="M65.9971 131.145V131.484C66.0003 131.697 66.0565 131.865 66.1655 131.987C66.2746 132.109 66.4219 132.17 66.6074 132.17C67.0241 132.17 67.2324 131.962 67.2324 131.547C67.2324 131.352 67.1763 131.196 67.064 131.079C66.9533 130.963 66.806 130.905 66.6221 130.905V130.454C66.9036 130.454 67.1372 130.556 67.3228 130.761C67.5099 130.968 67.6035 131.23 67.6035 131.547C67.6035 131.883 67.5148 132.146 67.3374 132.336C67.16 132.526 66.9134 132.622 66.5977 132.622C66.443 132.622 66.2933 132.571 66.1484 132.47C66.0036 132.371 65.8953 132.235 65.8237 132.062C65.7619 132.258 65.6593 132.408 65.5161 132.514C65.3729 132.622 65.1979 132.675 64.9912 132.675C64.6722 132.675 64.4191 132.571 64.2319 132.363C64.0448 132.154 63.9512 131.883 63.9512 131.55C63.9512 131.216 64.0415 130.944 64.2222 130.734C64.4028 130.526 64.6413 130.422 64.9375 130.422V130.876C64.7503 130.876 64.6006 130.937 64.4883 131.059C64.376 131.181 64.3198 131.345 64.3198 131.55C64.3198 131.768 64.3768 131.935 64.4907 132.05C64.6047 132.166 64.7682 132.224 64.9814 132.224C65.1882 132.224 65.3468 132.16 65.4575 132.033C65.5682 131.906 65.6252 131.723 65.6284 131.484V131.145H65.9971ZM65.9971 133.952V134.292C66.0003 134.505 66.0565 134.672 66.1655 134.794C66.2746 134.917 66.4219 134.978 66.6074 134.978C67.0241 134.978 67.2324 134.77 67.2324 134.355C67.2324 134.16 67.1763 134.003 67.064 133.886C66.9533 133.771 66.806 133.713 66.6221 133.713V133.261C66.9036 133.261 67.1372 133.364 67.3228 133.569C67.5099 133.776 67.6035 134.038 67.6035 134.355C67.6035 134.69 67.5148 134.953 67.3374 135.144C67.16 135.334 66.9134 135.429 66.5977 135.429C66.443 135.429 66.2933 135.379 66.1484 135.278C66.0036 135.179 65.8953 135.043 65.8237 134.87C65.7619 135.065 65.6593 135.216 65.5161 135.322C65.3729 135.429 65.1979 135.483 64.9912 135.483C64.6722 135.483 64.4191 135.379 64.2319 135.17C64.0448 134.962 63.9512 134.691 63.9512 134.357C63.9512 134.024 64.0415 133.752 64.2222 133.542C64.4028 133.334 64.6413 133.229 64.9375 133.229V133.684C64.7503 133.684 64.6006 133.745 64.4883 133.867C64.376 133.989 64.3198 134.152 64.3198 134.357C64.3198 134.576 64.3768 134.742 64.4907 134.858C64.6047 134.973 64.7682 135.031 64.9814 135.031C65.1882 135.031 65.3468 134.968 65.4575 134.841C65.5682 134.714 65.6252 134.531 65.6284 134.292V133.952H65.9971Z" fill="white"/>
<path d="M64 142.817V140.488H64.3247L65.6919 141.718C65.8986 141.901 66.0662 142.026 66.1948 142.094C66.325 142.164 66.4593 142.199 66.5977 142.199C66.7832 142.199 66.9354 142.143 67.0542 142.031C67.173 141.918 67.2324 141.769 67.2324 141.582C67.2324 141.357 67.1681 141.182 67.0396 141.057C66.9126 140.933 66.7352 140.871 66.5073 140.871V140.419C66.8345 140.419 67.099 140.524 67.3008 140.734C67.5026 140.946 67.6035 141.228 67.6035 141.582C67.6035 141.912 67.5164 142.173 67.3423 142.365C67.1698 142.557 66.9395 142.653 66.6514 142.653C66.3014 142.653 65.8848 142.43 65.4014 141.984L64.3687 141.032V142.817H64ZM65.7822 143.503L67.5547 143.684V145.505H67.1372V144.067L66.168 143.959C66.2705 144.134 66.3218 144.331 66.3218 144.553C66.3218 144.877 66.2144 145.134 65.9995 145.324C65.7863 145.515 65.4974 145.61 65.1328 145.61C64.7666 145.61 64.4777 145.511 64.2661 145.312C64.0562 145.115 63.9512 144.839 63.9512 144.484C63.9512 144.17 64.0382 143.914 64.2124 143.715C64.3866 143.517 64.6274 143.404 64.9351 143.376V143.803C64.7316 143.831 64.5778 143.903 64.4736 144.021C64.3711 144.138 64.3198 144.292 64.3198 144.484C64.3198 144.694 64.3914 144.859 64.5347 144.978C64.6779 145.098 64.8757 145.158 65.1279 145.158C65.3656 145.158 65.556 145.093 65.6992 144.963C65.8441 144.834 65.9165 144.663 65.9165 144.448C65.9165 144.251 65.8734 144.096 65.7871 143.984L65.6895 143.864L65.7822 143.503Z" fill="white"/>
<path d="M64 152.817V150.488H64.3247L65.6919 151.718C65.8986 151.901 66.0662 152.026 66.1948 152.094C66.325 152.164 66.4593 152.199 66.5977 152.199C66.7832 152.199 66.9354 152.143 67.0542 152.031C67.173 151.918 67.2324 151.769 67.2324 151.582C67.2324 151.357 67.1681 151.182 67.0396 151.057C66.9126 150.933 66.7352 150.871 66.5073 150.871V150.419C66.8345 150.419 67.099 150.524 67.3008 150.734C67.5026 150.946 67.6035 151.228 67.6035 151.582C67.6035 151.912 67.5164 152.173 67.3423 152.365C67.1698 152.557 66.9395 152.653 66.6514 152.653C66.3014 152.653 65.8848 152.43 65.4014 151.984L64.3687 151.032V152.817H64ZM67.5571 155.068H67.1738V154.985C67.1673 154.633 67.0632 154.353 66.8613 154.145C66.6595 153.937 66.3755 153.816 66.0093 153.784C66.2241 153.971 66.3315 154.226 66.3315 154.55C66.3315 154.86 66.2225 155.106 66.0044 155.29C65.7863 155.476 65.5047 155.568 65.1597 155.568C64.7935 155.568 64.5005 155.468 64.2808 155.268C64.061 155.069 63.9512 154.803 63.9512 154.467C63.9512 154.127 64.0814 153.851 64.3418 153.64C64.6038 153.428 64.9408 153.322 65.3525 153.322H65.5259C66.1802 153.322 66.6799 153.461 67.0249 153.74C67.3716 154.02 67.549 154.436 67.5571 154.987V155.068ZM65.9556 154.475C65.9556 154.32 65.9092 154.178 65.8164 154.047C65.7236 153.917 65.6073 153.827 65.4673 153.776H65.3013C65.0083 153.776 64.7723 153.842 64.5933 153.974C64.4142 154.106 64.3247 154.27 64.3247 154.467C64.3247 154.671 64.3996 154.83 64.5493 154.946C64.6991 155.063 64.8952 155.122 65.1377 155.122C65.3818 155.122 65.5788 155.062 65.7285 154.943C65.8799 154.826 65.9556 154.67 65.9556 154.475Z" fill="white"/>
<path d="M64 162.817V160.488H64.3247L65.6919 161.718C65.8986 161.901 66.0662 162.026 66.1948 162.094C66.325 162.164 66.4593 162.199 66.5977 162.199C66.7832 162.199 66.9354 162.143 67.0542 162.031C67.173 161.918 67.2324 161.769 67.2324 161.582C67.2324 161.357 67.1681 161.182 67.0396 161.057C66.9126 160.933 66.7352 160.871 66.5073 160.871V160.419C66.8345 160.419 67.099 160.524 67.3008 160.734C67.5026 160.946 67.6035 161.228 67.6035 161.582C67.6035 161.912 67.5164 162.173 67.3423 162.365C67.1698 162.557 66.9395 162.653 66.6514 162.653C66.3014 162.653 65.8848 162.43 65.4014 161.984L64.3687 161.032V162.817H64ZM67.3008 165.59L64 164.118V163.645L67.1836 165.112V163.188H67.5547V165.59H67.3008Z" fill="white"/>
<path d="M64 171.972V171.518H67.0103L66.6758 170.607H67.0859L67.5718 171.901V171.972H64ZM65.1938 175.202V175.695H64.8252V175.202H64V174.748H64.8252V173.129H65.0913L67.5547 174.721V175.202H65.1938ZM65.1938 173.642V174.748H66.937L66.8394 174.694L65.1938 173.642Z" fill="white"/>
<path d="M64 181.972V181.518H67.0103L66.6758 180.607H67.0859L67.5718 181.901V181.972H64ZM64 185.625V183.295H64.3247L65.6919 184.526C65.8986 184.708 66.0662 184.833 66.1948 184.902C66.325 184.972 66.4593 185.007 66.5977 185.007C66.7832 185.007 66.9354 184.951 67.0542 184.838C67.173 184.726 67.2324 184.576 67.2324 184.389C67.2324 184.165 67.1681 183.99 67.0396 183.864C66.9126 183.741 66.7352 183.679 66.5073 183.679V183.227C66.8345 183.227 67.099 183.332 67.3008 183.542C67.5026 183.754 67.6035 184.036 67.6035 184.389C67.6035 184.72 67.5164 184.981 67.3423 185.173C67.1698 185.365 66.9395 185.461 66.6514 185.461C66.3014 185.461 65.8848 185.238 65.4014 184.792L64.3687 183.84V185.625H64Z" fill="white"/>
<path d="M64.4663 191.41C64.2938 191.29 64.1644 191.121 64.0781 190.905C63.9935 190.69 63.9512 190.439 63.9512 190.153C63.9512 189.863 64.0187 189.606 64.1538 189.381C64.2905 189.157 64.4842 188.983 64.7349 188.859C64.9855 188.737 65.276 188.674 65.6064 188.671H65.9165C66.452 188.671 66.867 188.795 67.1616 189.044C67.4562 189.295 67.6035 189.647 67.6035 190.099C67.6035 190.47 67.5083 190.769 67.3179 190.995C67.1291 191.221 66.8605 191.36 66.5122 191.41V190.941C66.9826 190.854 67.2178 190.574 67.2178 190.102C67.2178 189.787 67.1071 189.549 66.8857 189.386C66.666 189.225 66.347 189.144 65.9287 189.142H65.6382C65.2394 189.142 64.922 189.233 64.686 189.416C64.4517 189.598 64.3345 189.844 64.3345 190.155C64.3345 190.331 64.354 190.485 64.3931 190.617C64.4321 190.749 64.498 190.858 64.5908 190.944H65.3892V190.121H65.77V191.41H64.4663ZM64 194.926V194.455L66.7393 192.665H64V192.194H67.5547V192.665L64.8032 194.459H67.5547V194.926H64ZM64 195.758H67.5547V196.762C67.5547 197.071 67.4863 197.344 67.3496 197.582C67.2129 197.82 67.0184 198.003 66.7661 198.131C66.5138 198.262 66.2241 198.327 65.897 198.329H65.6699C65.3346 198.329 65.0409 198.264 64.7886 198.134C64.5363 198.005 64.3426 197.82 64.2075 197.58C64.0724 197.34 64.0033 197.061 64 196.742V195.758ZM67.1689 196.227H64.3833V196.72C64.3833 197.082 64.4956 197.362 64.7202 197.562C64.9448 197.764 65.2646 197.865 65.6797 197.865H65.8872C66.2909 197.865 66.6042 197.77 66.8271 197.58C67.0518 197.391 67.1657 197.122 67.1689 196.774V196.227Z" fill="white"/>
<path d="M64 201.972V201.518H67.0103L66.6758 200.607H67.0859L67.5718 201.901V201.972H64ZM65.9971 203.952V204.292C66.0003 204.505 66.0565 204.672 66.1655 204.794C66.2746 204.917 66.4219 204.978 66.6074 204.978C67.0241 204.978 67.2324 204.77 67.2324 204.355C67.2324 204.16 67.1763 204.003 67.064 203.886C66.9533 203.771 66.806 203.713 66.6221 203.713V203.261C66.9036 203.261 67.1372 203.364 67.3228 203.569C67.5099 203.776 67.6035 204.038 67.6035 204.355C67.6035 204.69 67.5148 204.953 67.3374 205.144C67.16 205.334 66.9134 205.429 66.5977 205.429C66.443 205.429 66.2933 205.379 66.1484 205.278C66.0036 205.179 65.8953 205.043 65.8237 204.87C65.7619 205.065 65.6593 205.216 65.5161 205.322C65.3729 205.429 65.1979 205.483 64.9912 205.483C64.6722 205.483 64.4191 205.379 64.2319 205.17C64.0448 204.962 63.9512 204.691 63.9512 204.357C63.9512 204.024 64.0415 203.752 64.2222 203.542C64.4028 203.334 64.6413 203.229 64.9375 203.229V203.684C64.7503 203.684 64.6006 203.745 64.4883 203.867C64.376 203.989 64.3198 204.152 64.3198 204.357C64.3198 204.576 64.3768 204.742 64.4907 204.858C64.6047 204.973 64.7682 205.031 64.9814 205.031C65.1882 205.031 65.3468 204.968 65.4575 204.841C65.5682 204.714 65.6252 204.531 65.6284 204.292V203.952H65.9971Z" fill="white"/>
<path d="M64 210.868H67.5547V211.872C67.5547 212.181 67.4863 212.454 67.3496 212.692C67.2129 212.93 67.0184 213.113 66.7661 213.241C66.5138 213.371 66.2241 213.437 65.897 213.439H65.6699C65.3346 213.439 65.0409 213.374 64.7886 213.244C64.5363 213.115 64.3426 212.93 64.2075 212.689C64.0724 212.45 64.0033 212.171 64 211.852V210.868ZM67.1689 211.337H64.3833V211.83C64.3833 212.191 64.4956 212.472 64.7202 212.672C64.9448 212.874 65.2646 212.975 65.6797 212.975H65.8872C66.2909 212.975 66.6042 212.88 66.8271 212.689C67.0518 212.501 67.1657 212.232 67.1689 211.884V211.337ZM64 216.361V214.032H64.3247L65.6919 215.263C65.8986 215.445 66.0662 215.57 66.1948 215.639C66.325 215.709 66.4593 215.744 66.5977 215.744C66.7832 215.744 66.9354 215.688 67.0542 215.575C67.173 215.463 67.2324 215.313 67.2324 215.126C67.2324 214.901 67.1681 214.726 67.0396 214.601C66.9126 214.477 66.7352 214.416 66.5073 214.416V213.964C66.8345 213.964 67.099 214.069 67.3008 214.279C67.5026 214.49 67.6035 214.773 67.6035 215.126C67.6035 215.456 67.5164 215.718 67.3423 215.91C67.1698 216.102 66.9395 216.198 66.6514 216.198C66.3014 216.198 65.8848 215.975 65.4014 215.529L64.3687 214.577V216.361H64Z" fill="white"/>
<path d="M64 220.868H67.5547V221.872C67.5547 222.181 67.4863 222.454 67.3496 222.692C67.2129 222.93 67.0184 223.113 66.7661 223.241C66.5138 223.371 66.2241 223.437 65.897 223.439H65.6699C65.3346 223.439 65.0409 223.374 64.7886 223.244C64.5363 223.115 64.3426 222.93 64.2075 222.689C64.0724 222.45 64.0033 222.171 64 221.852V220.868ZM67.1689 221.337H64.3833V221.83C64.3833 222.191 64.4956 222.472 64.7202 222.672C64.9448 222.874 65.2646 222.975 65.6797 222.975H65.8872C66.2909 222.975 66.6042 222.88 66.8271 222.689C67.0518 222.501 67.1657 222.232 67.1689 221.884V221.337ZM65.9971 224.689V225.028C66.0003 225.242 66.0565 225.409 66.1655 225.531C66.2746 225.653 66.4219 225.714 66.6074 225.714C67.0241 225.714 67.2324 225.507 67.2324 225.092C67.2324 224.896 67.1763 224.74 67.064 224.623C66.9533 224.507 66.806 224.45 66.6221 224.45V223.998C66.9036 223.998 67.1372 224.101 67.3228 224.306C67.5099 224.512 67.6035 224.774 67.6035 225.092C67.6035 225.427 67.5148 225.69 67.3374 225.88C67.16 226.071 66.9134 226.166 66.5977 226.166C66.443 226.166 66.2933 226.116 66.1484 226.015C66.0036 225.915 65.8953 225.779 65.8237 225.607C65.7619 225.802 65.6593 225.953 65.5161 226.059C65.3729 226.166 65.1979 226.22 64.9912 226.22C64.6722 226.22 64.4191 226.116 64.2319 225.907C64.0448 225.699 63.9512 225.428 63.9512 225.094C63.9512 224.761 64.0415 224.489 64.2222 224.279C64.4028 224.07 64.6413 223.966 64.9375 223.966V224.42C64.7503 224.42 64.6006 224.481 64.4883 224.604C64.376 224.726 64.3198 224.889 64.3198 225.094C64.3198 225.312 64.3768 225.479 64.4907 225.595C64.6047 225.71 64.7682 225.768 64.9814 225.768C65.1882 225.768 65.3468 225.705 65.4575 225.578C65.5682 225.451 65.6252 225.268 65.6284 225.028V224.689H65.9971Z" fill="white"/>
<path d="M65.1279 231.076C64.752 231.032 64.4614 230.893 64.2563 230.658C64.0529 230.425 63.9512 230.115 63.9512 229.728C63.9512 229.308 64.1017 228.971 64.4028 228.717C64.7039 228.465 65.1068 228.339 65.6113 228.339H65.9531C66.2835 228.339 66.5741 228.397 66.8247 228.515C67.0754 228.633 67.2674 228.801 67.4009 229.018C67.536 229.234 67.6035 229.485 67.6035 229.77C67.6035 230.147 67.4977 230.45 67.2861 230.678C67.0762 230.906 66.7848 231.038 66.4121 231.076V230.604C66.6953 230.564 66.9004 230.475 67.0273 230.338C67.1543 230.203 67.2178 230.014 67.2178 229.77C67.2178 229.47 67.1071 229.235 66.8857 229.064C66.6644 228.895 66.3494 228.81 65.9409 228.81H65.5967C65.2109 228.81 64.9041 228.891 64.6763 229.052C64.4484 229.213 64.3345 229.438 64.3345 229.728C64.3345 229.988 64.3931 230.188 64.5103 230.326C64.6291 230.466 64.835 230.559 65.1279 230.604V231.076ZM67.5547 232.323L64.6543 233.485L67.5547 234.647V235.255H64V234.787H65.3843L66.8784 234.831L64 233.664V233.305L66.8711 232.14L65.3843 232.187H64V231.718H67.5547V232.323ZM64 236.083H67.5547V237.086C67.5547 237.396 67.4863 237.669 67.3496 237.907C67.2129 238.144 67.0184 238.327 66.7661 238.456C66.5138 238.586 66.2241 238.652 65.897 238.654H65.6699C65.3346 238.654 65.0409 238.589 64.7886 238.458C64.5363 238.33 64.3426 238.145 64.2075 237.904C64.0724 237.665 64.0033 237.386 64 237.067V236.083ZM67.1689 236.552H64.3833V237.045C64.3833 237.406 64.4956 237.687 64.7202 237.887C64.9448 238.089 65.2646 238.19 65.6797 238.19H65.8872C66.2909 238.19 66.6042 238.095 66.8271 237.904C67.0518 237.715 67.1657 237.447 67.1689 237.099V236.552Z" fill="white"/>
<path d="M65.7822 240.507L67.5547 240.688V242.509H67.1372V241.071L66.168 240.964C66.2705 241.138 66.3218 241.336 66.3218 241.557C66.3218 241.881 66.2144 242.138 65.9995 242.329C65.7863 242.519 65.4974 242.614 65.1328 242.614C64.7666 242.614 64.4777 242.515 64.2661 242.316C64.0562 242.119 63.9512 241.844 63.9512 241.489C63.9512 241.175 64.0382 240.918 64.2124 240.72C64.3866 240.521 64.6274 240.408 64.9351 240.38V240.808C64.7316 240.835 64.5778 240.908 64.4736 241.025C64.3711 241.142 64.3198 241.297 64.3198 241.489C64.3198 241.699 64.3914 241.863 64.5347 241.982C64.6779 242.102 64.8757 242.163 65.1279 242.163C65.3656 242.163 65.556 242.097 65.6992 241.967C65.8441 241.839 65.9165 241.667 65.9165 241.452C65.9165 241.255 65.8734 241.101 65.7871 240.988L65.6895 240.869L65.7822 240.507ZM64.6226 244.401L67.5547 245.417V245.93L64 244.611V244.196L67.5547 242.88V243.391L64.6226 244.401Z" fill="white"/>
<path d="M65.9971 121.145V121.484C66.0003 121.697 66.0565 121.865 66.1655 121.987C66.2746 122.109 66.4219 122.17 66.6074 122.17C67.0241 122.17 67.2324 121.962 67.2324 121.547C67.2324 121.352 67.1763 121.196 67.064 121.079C66.9533 120.963 66.806 120.905 66.6221 120.905V120.454C66.9036 120.454 67.1372 120.556 67.3228 120.761C67.5099 120.968 67.6035 121.23 67.6035 121.547C67.6035 121.883 67.5148 122.146 67.3374 122.336C67.16 122.526 66.9134 122.622 66.5977 122.622C66.443 122.622 66.2933 122.571 66.1484 122.47C66.0036 122.371 65.8953 122.235 65.8237 122.062C65.7619 122.258 65.6593 122.408 65.5161 122.514C65.3729 122.622 65.1979 122.675 64.9912 122.675C64.6722 122.675 64.4191 122.571 64.2319 122.363C64.0448 122.154 63.9512 121.883 63.9512 121.55C63.9512 121.216 64.0415 120.944 64.2222 120.734C64.4028 120.526 64.6413 120.422 64.9375 120.422V120.876C64.7503 120.876 64.6006 120.937 64.4883 121.059C64.376 121.181 64.3198 121.345 64.3198 121.55C64.3198 121.768 64.3768 121.935 64.4907 122.05C64.6047 122.166 64.7682 122.224 64.9814 122.224C65.1882 122.224 65.3468 122.16 65.4575 122.033C65.5682 121.906 65.6252 121.723 65.6284 121.484V121.145H65.9971ZM64 125.625V123.295H64.3247L65.6919 124.526C65.8986 124.708 66.0662 124.833 66.1948 124.902C66.325 124.972 66.4593 125.007 66.5977 125.007C66.7832 125.007 66.9354 124.951 67.0542 124.838C67.173 124.726 67.2324 124.576 67.2324 124.389C67.2324 124.165 67.1681 123.99 67.0396 123.864C66.9126 123.741 66.7352 123.679 66.5073 123.679V123.227C66.8345 123.227 67.099 123.332 67.3008 123.542C67.5026 123.754 67.6035 124.036 67.6035 124.389C67.6035 124.72 67.5164 124.981 67.3423 125.173C67.1698 125.365 66.9395 125.461 66.6514 125.461C66.3014 125.461 65.8848 125.238 65.4014 124.792L64.3687 123.84V125.625H64Z" fill="white"/>
<path d="M161.872 244.514C162.248 244.558 162.539 244.697 162.744 244.931C162.947 245.164 163.049 245.474 163.049 245.861C163.049 246.281 162.898 246.618 162.597 246.872C162.296 247.124 161.893 247.25 161.389 247.25H161.047C160.716 247.25 160.426 247.192 160.175 247.075C159.925 246.956 159.733 246.788 159.599 246.572C159.464 246.355 159.396 246.105 159.396 245.82C159.396 245.442 159.502 245.139 159.714 244.912C159.924 244.684 160.215 244.551 160.588 244.514V244.985C160.305 245.026 160.1 245.114 159.973 245.251C159.846 245.386 159.782 245.576 159.782 245.82C159.782 246.119 159.893 246.354 160.114 246.525C160.336 246.695 160.651 246.779 161.059 246.779H161.403C161.789 246.779 162.096 246.699 162.324 246.538C162.552 246.376 162.666 246.151 162.666 245.861C162.666 245.601 162.607 245.402 162.49 245.263C162.371 245.123 162.165 245.03 161.872 244.985V244.514ZM162.617 243.4V241.716H163V243.872H159.445V243.4H162.617ZM161.347 240.278L161.799 240.712H163V241.181H159.445V240.712H161.203L159.445 239.133V238.566L161.015 239.965L163 238.457V239.018L161.347 240.278Z" fill="white"/>
<path d="M163 234.132H159.445V233.128C159.445 232.819 159.514 232.546 159.65 232.308C159.787 232.07 159.982 231.887 160.234 231.759C160.486 231.629 160.776 231.563 161.103 231.561H161.33C161.665 231.561 161.959 231.626 162.211 231.756C162.464 231.885 162.657 232.07 162.792 232.311C162.928 232.55 162.997 232.829 163 233.148V234.132ZM159.831 233.663H162.617V233.17C162.617 232.809 162.504 232.528 162.28 232.328C162.055 232.126 161.735 232.025 161.32 232.025H161.113C160.709 232.025 160.396 232.12 160.173 232.311C159.948 232.499 159.834 232.768 159.831 233.116V233.663ZM161.484 228.739C162.013 228.739 162.406 228.829 162.663 229.01C162.92 229.19 163.049 229.473 163.049 229.857C163.049 230.236 162.924 230.517 162.673 230.699C162.421 230.882 162.045 230.976 161.545 230.982H160.942C160.419 230.982 160.031 230.892 159.777 230.711C159.523 230.531 159.396 230.248 159.396 229.862C159.396 229.479 159.519 229.198 159.765 229.017C160.009 228.836 160.387 228.744 160.898 228.739H161.484ZM160.866 229.19C160.484 229.19 160.205 229.244 160.031 229.352C159.855 229.459 159.768 229.629 159.768 229.862C159.768 230.093 159.855 230.261 160.029 230.367C160.203 230.473 160.471 230.528 160.832 230.531H161.555C161.939 230.531 162.223 230.475 162.407 230.365C162.589 230.252 162.68 230.083 162.68 229.857C162.68 229.634 162.594 229.469 162.421 229.361C162.249 229.252 161.977 229.195 161.606 229.19H160.866Z" fill="white"/>
<path d="M163 225.132H159.445V224.128C159.445 223.819 159.514 223.546 159.65 223.308C159.787 223.07 159.982 222.887 160.234 222.759C160.486 222.629 160.776 222.563 161.103 222.561H161.33C161.665 222.561 161.959 222.626 162.211 222.756C162.464 222.885 162.657 223.07 162.792 223.311C162.928 223.55 162.997 223.829 163 224.148V225.132ZM159.831 224.663H162.617V224.17C162.617 223.809 162.504 223.528 162.28 223.328C162.055 223.126 161.735 223.025 161.32 223.025H161.113C160.709 223.025 160.396 223.12 160.173 223.311C159.948 223.499 159.834 223.768 159.831 224.116V224.663ZM163 220.483V220.938H159.99L160.324 221.848H159.914L159.428 220.554V220.483H163Z" fill="white"/>
<path d="M163 214.028V214.482H159.99L160.324 215.393H159.914L159.428 214.099V214.028H163ZM161.218 212.497L159.445 212.316V210.495H159.863V211.933L160.832 212.041C160.729 211.866 160.678 211.669 160.678 211.447C160.678 211.123 160.786 210.866 161 210.676C161.214 210.485 161.503 210.39 161.867 210.39C162.233 210.39 162.522 210.489 162.734 210.688C162.944 210.885 163.049 211.161 163.049 211.516C163.049 211.83 162.962 212.086 162.788 212.285C162.613 212.483 162.373 212.596 162.065 212.624V212.197C162.268 212.169 162.422 212.097 162.526 211.979C162.629 211.862 162.68 211.708 162.68 211.516C162.68 211.306 162.609 211.141 162.465 211.022C162.322 210.902 162.124 210.842 161.872 210.842C161.634 210.842 161.444 210.907 161.301 211.037C161.156 211.166 161.083 211.337 161.083 211.552C161.083 211.749 161.127 211.904 161.213 212.016L161.311 212.136L161.218 212.497Z" fill="white"/>
<path d="M163 200.279V202.608H162.675L161.308 201.378C161.101 201.196 160.934 201.07 160.805 201.002C160.675 200.932 160.541 200.897 160.402 200.897C160.217 200.897 160.065 200.953 159.946 201.065C159.827 201.178 159.768 201.327 159.768 201.515C159.768 201.739 159.832 201.914 159.96 202.04C160.087 202.163 160.265 202.225 160.493 202.225V202.677C160.166 202.677 159.901 202.572 159.699 202.362C159.497 202.15 159.396 201.868 159.396 201.515C159.396 201.184 159.484 200.923 159.658 200.731C159.83 200.539 160.061 200.443 160.349 200.443C160.699 200.443 161.115 200.666 161.599 201.112L162.631 202.064V200.279H163Z" fill="white"/>
<path d="M161.484 190.379C162.013 190.379 162.406 190.47 162.663 190.65C162.92 190.831 163.049 191.113 163.049 191.498C163.049 191.877 162.924 192.158 162.673 192.34C162.421 192.522 162.045 192.617 161.545 192.623H160.942C160.419 192.623 160.031 192.533 159.777 192.352C159.523 192.171 159.396 191.888 159.396 191.502C159.396 191.12 159.519 190.838 159.765 190.658C160.009 190.477 160.387 190.384 160.898 190.379H161.484ZM160.866 190.831C160.484 190.831 160.205 190.885 160.031 190.992C159.855 191.1 159.768 191.27 159.768 191.502C159.768 191.734 159.855 191.902 160.029 192.008C160.203 192.114 160.471 192.168 160.832 192.171H161.555C161.939 192.171 162.223 192.116 162.407 192.005C162.589 191.893 162.68 191.724 162.68 191.498C162.68 191.275 162.594 191.109 162.421 191.002C162.249 190.893 161.977 190.836 161.606 190.831H160.866Z" fill="white"/>
<path d="M163 173.028V173.482H159.99L160.324 174.393H159.914L159.428 173.099V173.028H163ZM159.443 169.932H159.826V170.015C159.833 170.367 159.937 170.647 160.139 170.855C160.34 171.063 160.625 171.184 160.991 171.216C160.776 171.029 160.668 170.774 160.668 170.45C160.668 170.14 160.778 169.894 160.996 169.71C161.214 169.524 161.495 169.432 161.84 169.432C162.207 169.432 162.5 169.532 162.719 169.732C162.939 169.931 163.049 170.197 163.049 170.533C163.049 170.873 162.919 171.149 162.658 171.36C162.396 171.572 162.059 171.678 161.647 171.678H161.474C160.82 171.678 160.32 171.539 159.975 171.26C159.628 170.98 159.451 170.564 159.443 170.013V169.932ZM161.044 170.525C161.044 170.68 161.091 170.822 161.184 170.953C161.276 171.083 161.393 171.173 161.533 171.224H161.699C161.992 171.224 162.228 171.158 162.407 171.026C162.586 170.894 162.675 170.73 162.675 170.533C162.675 170.329 162.6 170.17 162.451 170.054C162.301 169.937 162.105 169.878 161.862 169.878C161.618 169.878 161.421 169.938 161.271 170.057C161.12 170.174 161.044 170.33 161.044 170.525Z" fill="white"/>
<path d="M163 163.028V163.482H159.99L160.324 164.393H159.914L159.428 163.099V163.028H163ZM159.699 159.41L163 160.882V161.355L159.816 159.888V161.812H159.445V159.41H159.699Z" fill="white"/>
<path d="M161.218 153.401L159.445 153.22V151.399H159.863V152.837L160.832 152.944C160.729 152.77 160.678 152.572 160.678 152.351C160.678 152.027 160.786 151.77 161 151.58C161.214 151.389 161.503 151.294 161.867 151.294C162.233 151.294 162.522 151.393 162.734 151.592C162.944 151.789 163.049 152.065 163.049 152.419C163.049 152.734 162.962 152.99 162.788 153.188C162.613 153.387 162.373 153.5 162.065 153.528V153.101C162.268 153.073 162.422 153 162.526 152.883C162.629 152.766 162.68 152.611 162.68 152.419C162.68 152.209 162.609 152.045 162.465 151.926C162.322 151.806 162.124 151.746 161.872 151.746C161.634 151.746 161.444 151.811 161.301 151.941C161.156 152.069 161.083 152.241 161.083 152.456C161.083 152.653 161.127 152.808 161.213 152.92L161.311 153.04L161.218 153.401Z" fill="white"/>
<path d="M163 144.028V144.482H159.99L160.324 145.393H159.914L159.428 144.099V144.028H163ZM160.373 140.549C160.55 140.549 160.708 140.596 160.847 140.69C160.985 140.783 161.093 140.909 161.171 141.069C161.251 140.883 161.368 140.737 161.521 140.629C161.674 140.52 161.847 140.466 162.041 140.466C162.348 140.466 162.593 140.57 162.775 140.778C162.958 140.985 163.049 141.258 163.049 141.596C163.049 141.938 162.958 142.212 162.775 142.419C162.591 142.624 162.347 142.727 162.041 142.727C161.848 142.727 161.675 142.674 161.521 142.57C161.366 142.465 161.249 142.319 161.169 142.133C161.091 142.291 160.983 142.416 160.844 142.507C160.706 142.598 160.549 142.644 160.373 142.644C160.074 142.644 159.836 142.548 159.66 142.355C159.484 142.163 159.396 141.91 159.396 141.596C159.396 141.284 159.484 141.031 159.66 140.839C159.836 140.646 160.074 140.549 160.373 140.549ZM162.031 140.917C161.832 140.917 161.67 140.981 161.545 141.108C161.42 141.233 161.357 141.398 161.357 141.601C161.357 141.805 161.419 141.968 161.542 142.092C161.666 142.214 161.829 142.275 162.031 142.275C162.233 142.275 162.391 142.215 162.507 142.097C162.622 141.976 162.68 141.809 162.68 141.596C162.68 141.385 162.622 141.219 162.507 141.098C162.39 140.978 162.231 140.917 162.031 140.917ZM159.768 141.596C159.768 141.774 159.823 141.918 159.934 142.028C160.043 142.137 160.192 142.192 160.38 142.192C160.561 142.192 160.708 142.138 160.82 142.031C160.931 141.922 160.986 141.777 160.986 141.596C160.986 141.416 160.931 141.271 160.82 141.164C160.708 141.055 160.561 141 160.38 141C160.2 141 160.052 141.057 159.938 141.169C159.825 141.281 159.768 141.424 159.768 141.596Z" fill="white"/>
<path d="M163 134.028V134.482H159.99L160.324 135.393H159.914L159.428 134.099V134.028H163ZM161.438 130.974C161.55 131.068 161.64 131.181 161.708 131.313C161.777 131.443 161.811 131.586 161.811 131.743C161.811 131.948 161.761 132.127 161.66 132.28C161.559 132.431 161.417 132.548 161.235 132.631C161.051 132.714 160.848 132.756 160.627 132.756C160.389 132.756 160.175 132.711 159.985 132.622C159.794 132.53 159.649 132.402 159.548 132.236C159.447 132.07 159.396 131.876 159.396 131.655C159.396 131.303 159.528 131.027 159.792 130.825C160.054 130.621 160.412 130.52 160.866 130.52H160.998C161.69 130.52 162.195 130.656 162.514 130.93C162.832 131.203 162.994 131.616 163.002 132.167V132.255H162.622V132.16C162.615 131.787 162.518 131.501 162.331 131.301C162.142 131.101 161.844 130.992 161.438 130.974ZM161.438 131.669C161.438 131.518 161.391 131.379 161.298 131.252C161.206 131.123 161.091 131.03 160.954 130.971H160.773C160.477 130.971 160.236 131.035 160.051 131.164C159.865 131.293 159.772 131.455 159.772 131.652C159.772 131.851 159.849 132.01 160.002 132.131C160.153 132.251 160.354 132.312 160.603 132.312C160.845 132.312 161.045 132.254 161.203 132.138C161.359 132.021 161.438 131.865 161.438 131.669Z" fill="white"/>
<path d="M162.534 125.59C162.706 125.71 162.836 125.879 162.922 126.095C163.007 126.31 163.049 126.561 163.049 126.847C163.049 127.137 162.981 127.394 162.846 127.619C162.709 127.843 162.516 128.017 162.265 128.141C162.014 128.263 161.724 128.326 161.394 128.329H161.083C160.548 128.329 160.133 128.205 159.838 127.956C159.544 127.705 159.396 127.353 159.396 126.901C159.396 126.53 159.492 126.231 159.682 126.005C159.871 125.779 160.139 125.64 160.488 125.59V126.059C160.017 126.146 159.782 126.426 159.782 126.898C159.782 127.213 159.893 127.451 160.114 127.614C160.334 127.775 160.653 127.856 161.071 127.858H161.362C161.761 127.858 162.078 127.767 162.314 127.584C162.548 127.402 162.666 127.156 162.666 126.845C162.666 126.669 162.646 126.515 162.607 126.383C162.568 126.251 162.502 126.142 162.409 126.056H161.611V126.879H161.23V125.59H162.534ZM163 122.074V122.545L160.261 124.335H163V124.806H159.445V124.335L162.197 122.541H159.445V122.074H163ZM163 121.242H159.445V120.238C159.445 119.929 159.514 119.656 159.65 119.418C159.787 119.18 159.982 118.997 160.234 118.869C160.486 118.738 160.776 118.673 161.103 118.671H161.33C161.665 118.671 161.959 118.736 162.211 118.866C162.464 118.995 162.657 119.18 162.792 119.42C162.928 119.66 162.997 119.939 163 120.258V121.242ZM159.831 120.773H162.617V120.28C162.617 119.918 162.504 119.638 162.28 119.438C162.055 119.236 161.735 119.135 161.32 119.135H161.113C160.709 119.135 160.396 119.23 160.173 119.42C159.948 119.609 159.834 119.878 159.831 120.226V120.773Z" fill="white"/>
<path d="M163 112.183V114.512H162.675L161.308 113.282C161.101 113.099 160.934 112.974 160.805 112.906C160.675 112.836 160.541 112.801 160.402 112.801C160.217 112.801 160.065 112.857 159.946 112.969C159.827 113.082 159.768 113.231 159.768 113.418C159.768 113.643 159.832 113.818 159.96 113.943C160.087 114.067 160.265 114.129 160.493 114.129V114.581C160.166 114.581 159.901 114.476 159.699 114.266C159.497 114.054 159.396 113.772 159.396 113.418C159.396 113.088 159.484 112.827 159.658 112.635C159.83 112.443 160.061 112.347 160.349 112.347C160.699 112.347 161.115 112.57 161.599 113.016L162.631 113.968V112.183H163ZM163 110.22V110.674H159.99L160.324 111.585H159.914L159.428 110.291V110.22H163Z" fill="white"/>
<path d="M161.562 102.892V103.727H163V104.198H159.445V103.021C159.445 102.621 159.536 102.313 159.719 102.098C159.901 101.882 160.166 101.773 160.515 101.773C160.736 101.773 160.929 101.834 161.093 101.954C161.258 102.073 161.381 102.239 161.462 102.452L162.971 101.617H163V102.12L161.562 102.892ZM161.179 103.727V103.006C161.179 102.774 161.118 102.589 160.998 102.452C160.878 102.314 160.716 102.245 160.515 102.245C160.295 102.245 160.126 102.311 160.009 102.442C159.892 102.573 159.833 102.761 159.831 103.009V103.727H161.179ZM160.808 99.9546L159.445 99.1025V98.5508L161.208 99.6738L163 98.5239V99.0806L161.613 99.9546L163 100.833V101.388L161.208 100.235L159.445 101.361V100.812L160.808 99.9546Z" fill="white"/>
<path d="M159.831 91.6904V92.833H163V93.2993H159.831V94.4395H159.445V91.6904H159.831ZM160.808 90.0034L159.445 89.1514V88.5996L161.208 89.7227L163 88.5728V89.1294L161.613 90.0034L163 90.8823V91.4365L161.208 90.2842L159.445 91.4097V90.8604L160.808 90.0034Z" fill="white"/>
<path d="M163 82.1831V84.5122H162.675L161.308 83.2817C161.101 83.0994 160.934 82.9741 160.805 82.9058C160.675 82.8358 160.541 82.8008 160.402 82.8008C160.217 82.8008 160.065 82.8569 159.946 82.9692C159.827 83.0815 159.768 83.2313 159.768 83.4185C159.768 83.6431 159.832 83.818 159.96 83.9434C160.087 84.0671 160.265 84.1289 160.493 84.1289V84.5806C160.166 84.5806 159.901 84.4756 159.699 84.2656C159.497 84.054 159.396 83.7716 159.396 83.4185C159.396 83.0881 159.484 82.8268 159.658 82.6348C159.83 82.4427 160.061 82.3467 160.349 82.3467C160.699 82.3467 161.115 82.5697 161.599 83.0156L162.631 83.9678V82.1831H163ZM163 79.3755V81.7046H162.675L161.308 80.4741C161.101 80.2918 160.934 80.1665 160.805 80.0981C160.675 80.0282 160.541 79.9932 160.402 79.9932C160.217 79.9932 160.065 80.0493 159.946 80.1616C159.827 80.2739 159.768 80.4237 159.768 80.6108C159.768 80.8354 159.832 81.0104 159.96 81.1357C160.087 81.2594 160.265 81.3213 160.493 81.3213V81.7729C160.166 81.7729 159.901 81.668 159.699 81.458C159.497 81.2464 159.396 80.964 159.396 80.6108C159.396 80.2804 159.484 80.0192 159.658 79.8271C159.83 79.6351 160.061 79.5391 160.349 79.5391C160.699 79.5391 161.115 79.762 161.599 80.208L162.631 81.1602V79.3755H163Z" fill="white"/>
<path d="M163 72.1831V74.5122H162.675L161.308 73.2817C161.101 73.0994 160.934 72.9741 160.805 72.9058C160.675 72.8358 160.541 72.8008 160.402 72.8008C160.217 72.8008 160.065 72.8569 159.946 72.9692C159.827 73.0815 159.768 73.2313 159.768 73.4185C159.768 73.6431 159.832 73.818 159.96 73.9434C160.087 74.0671 160.265 74.1289 160.493 74.1289V74.5806C160.166 74.5806 159.901 74.4756 159.699 74.2656C159.497 74.054 159.396 73.7716 159.396 73.4185C159.396 73.0881 159.484 72.8268 159.658 72.6348C159.83 72.4427 160.061 72.3467 160.349 72.3467C160.699 72.3467 161.115 72.5697 161.599 73.0156L162.631 73.9678V72.1831H163ZM161.003 71.0479V70.7085C161 70.4953 160.944 70.3276 160.834 70.2056C160.725 70.0835 160.578 70.0225 160.393 70.0225C159.976 70.0225 159.768 70.23 159.768 70.645C159.768 70.8403 159.824 70.9966 159.936 71.1138C160.047 71.2293 160.194 71.2871 160.378 71.2871V71.7388C160.096 71.7388 159.863 71.6362 159.677 71.4312C159.49 71.2244 159.396 70.9624 159.396 70.645C159.396 70.3097 159.485 70.0469 159.663 69.8564C159.84 69.666 160.087 69.5708 160.402 69.5708C160.557 69.5708 160.707 69.6213 160.852 69.7222C160.996 69.8215 161.105 69.9574 161.176 70.1299C161.238 69.9346 161.341 69.784 161.484 69.6782C161.627 69.5708 161.802 69.5171 162.009 69.5171C162.328 69.5171 162.581 69.6213 162.768 69.8296C162.955 70.0379 163.049 70.3089 163.049 70.6426C163.049 70.9762 162.958 71.248 162.778 71.458C162.597 71.6663 162.359 71.7705 162.062 71.7705V71.3164C162.25 71.3164 162.399 71.2554 162.512 71.1333C162.624 71.0112 162.68 70.8477 162.68 70.6426C162.68 70.4245 162.623 70.2576 162.509 70.1421C162.395 70.0265 162.232 69.9688 162.019 69.9688C161.812 69.9688 161.653 70.0322 161.542 70.1592C161.432 70.2861 161.375 70.4692 161.372 70.7085V71.0479H161.003Z" fill="white"/>
<path d="M162.534 64.5898C162.706 64.7103 162.836 64.8787 162.922 65.0952C163.007 65.3101 163.049 65.5607 163.049 65.8472C163.049 66.1369 162.981 66.394 162.846 66.6187C162.709 66.8433 162.516 67.0174 162.265 67.1411C162.014 67.2632 161.724 67.3258 161.394 67.3291H161.083C160.548 67.3291 160.133 67.2046 159.838 66.9556C159.544 66.7049 159.396 66.3534 159.396 65.9009C159.396 65.5298 159.492 65.2311 159.682 65.0049C159.871 64.7786 160.139 64.6403 160.488 64.5898V65.0586C160.017 65.1465 159.782 65.4264 159.782 65.8984C159.782 66.2126 159.893 66.451 160.114 66.6138C160.334 66.7749 160.653 66.8563 161.071 66.8579H161.362C161.761 66.8579 162.078 66.7668 162.314 66.5845C162.548 66.4022 162.666 66.1556 162.666 65.8447C162.666 65.6689 162.646 65.5151 162.607 65.3833C162.568 65.2515 162.502 65.1424 162.409 65.0562H161.611V65.8789H161.23V64.5898H162.534ZM163 61.0742V61.5454L160.261 63.335H163V63.8062H159.445V63.335L162.197 61.5405H159.445V61.0742H163ZM163 60.2417H159.445V59.2383C159.445 58.929 159.514 58.6556 159.65 58.418C159.787 58.1803 159.982 57.9972 160.234 57.8687C160.486 57.7384 160.776 57.6725 161.103 57.6709H161.33C161.665 57.6709 161.959 57.736 162.211 57.8662C162.464 57.9948 162.657 58.1795 162.792 58.4204C162.928 58.6597 162.997 58.9388 163 59.2578V60.2417ZM159.831 59.7729H162.617V59.2798C162.617 58.9185 162.504 58.6377 162.28 58.4375C162.055 58.2357 161.735 58.1348 161.32 58.1348H161.113C160.709 58.1348 160.396 58.23 160.173 58.4204C159.948 58.6092 159.834 58.8778 159.831 59.2261V59.7729Z" fill="white"/>
<path d="M161.806 180.702V180.208H162.175V180.702H163V181.156H162.175V182.774H161.909L159.445 181.183V180.702H161.806ZM161.806 182.262V181.156H160.063L160.161 181.209L161.806 182.262Z" fill="white"/>
<path d="M212.687 113.559L212.452 113.508L203.631 111.719C203.397 111.668 203.39 111.134 203.61 110.118C203.83 109.101 204.132 107.898 204.515 106.508C204.915 105.039 205.363 103.54 205.859 102.01C206.354 100.48 206.72 99.1682 206.957 98.0736L206.983 97.9563C208.006 97.7688 209.112 97.763 210.302 97.9391C211.492 98.1151 212.703 98.3778 213.937 98.7271C215.25 99.0934 216.514 99.4904 217.731 99.9179C218.965 100.267 220.169 100.569 221.341 100.823C220.789 102.995 220.202 105.324 219.582 107.809C218.978 110.216 218.43 112.553 217.939 114.82L217.118 114.642C216.18 114.439 215.398 114.269 214.772 114.134C214.242 113.937 213.547 113.745 212.687 113.559ZM217.082 45.1369C218.296 39.9155 219.635 34.6805 221.1 29.4317L221.452 29.508C223.519 29.7923 225.915 30.0662 228.641 30.3297C231.445 30.6101 233.874 31.3003 235.928 32.4004C233.602 42.374 231.2 52.6995 228.722 63.3769C226.339 73.993 224.297 84.3557 222.597 94.4649C220.513 94.2588 218.017 93.8813 215.107 93.3324C212.214 92.7054 209.625 92.1852 207.341 91.7718L207.224 91.7464C208.421 86.6032 209.539 81.4431 210.58 76.266C211.698 71.1058 212.778 65.9372 213.818 60.7601C214.858 55.583 215.946 50.3753 217.082 45.1369Z" fill="#D20B0B"/>
<defs>
<filter id="filter0_d_102_7" x="0.0532146" y="229.211" width="225.045" height="63.8936" filterUnits="userSpaceOnUse" color-interpolation-filters="sRGB">
<feFlood flood-opacity="0" result="BackgroundImageFix"/>
<feColorMatrix in="SourceAlpha" type="matrix" values="0 0 0 0 0 0 0 0 0 0 0 0 0 0 0 0 0 0 127 0" result="hardAlpha"/>
<feOffset dy="3.15743"/>
<feGaussianBlur stdDeviation="1.97339"/>
<feComposite in2="hardAlpha" operator="out"/>
<feColorMatrix type="matrix" values="0 0 0 0 0 0 0 0 0 0 0 0 0 0 0 0 0 0 0.15 0"/>
<feBlend mode="normal" in2="BackgroundImageFix" result="effect1_dropShadow_102_7"/>
<feBlend mode="normal" in="SourceGraphic" in2="effect1_dropShadow_102_7" result="shape"/>
</filter>
<filter id="filter1_dd_102_7" x="84.6899" y="61.5137" width="51.3125" height="14.5742" filterUnits="userSpaceOnUse" color-interpolation-filters="sRGB">
<feFlood flood-opacity="0" result="BackgroundImageFix"/>
<feColorMatrix in="SourceAlpha" type="matrix" values="0 0 0 0 0 0 0 0 0 0 0 0 0 0 0 0 0 0 127 0" result="hardAlpha"/>
<feOffset dy="4"/>
<feGaussianBlur stdDeviation="2"/>
<feComposite in2="hardAlpha" operator="out"/>
<feColorMatrix type="matrix" values="0 0 0 0 0 0 0 0 0 0 0 0 0 0 0 0 0 0 0.25 0"/>
<feBlend mode="normal" in2="BackgroundImageFix" result="effect1_dropShadow_102_7"/>
<feColorMatrix in="SourceAlpha" type="matrix" values="0 0 0 0 0 0 0 0 0 0 0 0 0 0 0 0 0 0 127 0" result="hardAlpha"/>
<feOffset dy="4"/>
<feGaussianBlur stdDeviation="2"/>
<feComposite in2="hardAlpha" operator="out"/>
<feColorMatrix type="matrix" values="0 0 0 0 0 0 0 0 0 0 0 0 0 0 0 0 0 0 0.25 0"/>
<feBlend mode="normal" in2="effect1_dropShadow_102_7" result="effect2_dropShadow_102_7"/>
<feBlend mode="normal" in="SourceGraphic" in2="effect2_dropShadow_102_7" result="shape"/>
</filter>
</defs>
</svg>
